<mxfile host="app.diagrams.net" modified="2022-02-15T05:06:16.542Z" agent="5.0 (Windows NT 10.0; Win64; x64) AppleWebKit/537.36 (KHTML, like Gecko) Chrome/98.0.4758.80 Safari/537.36 Edg/98.0.1108.43" etag="77thivzgvdj7B3HHUBDm" version="16.5.3" type="github">
  <diagram id="mjg_MlgsnZtn2fFYbNmN" name="Page-1">
    <mxGraphModel dx="1046" dy="468" grid="1" gridSize="10" guides="1" tooltips="1" connect="1" arrows="1" fold="1" page="1" pageScale="1" pageWidth="850" pageHeight="1100" math="0" shadow="0">
      <root>
        <mxCell id="0" />
        <mxCell id="1" parent="0" />
        <mxCell id="Vcdu8m01-dEKTfZSmj1O-37" value="" style="strokeWidth=2;html=1;shape=mxgraph.flowchart.database;whiteSpace=wrap;direction=east;" vertex="1" parent="1">
          <mxGeometry x="160" y="340" width="80" height="90" as="geometry" />
        </mxCell>
        <mxCell id="Vcdu8m01-dEKTfZSmj1O-50" value="One time CODE move" style="edgeStyle=orthogonalEdgeStyle;rounded=0;orthogonalLoop=1;jettySize=auto;html=1;entryX=0.995;entryY=0.242;entryDx=0;entryDy=0;entryPerimeter=0;" edge="1" parent="1" source="Vcdu8m01-dEKTfZSmj1O-20" target="Vcdu8m01-dEKTfZSmj1O-15">
          <mxGeometry relative="1" as="geometry" />
        </mxCell>
        <mxCell id="Vcdu8m01-dEKTfZSmj1O-20" value="Azure Repo&lt;br&gt;Python Code" style="sketch=0;aspect=fixed;html=1;points=[];align=center;image;fontSize=12;image=img/lib/mscae/Azure_Repos.svg;" vertex="1" parent="1">
          <mxGeometry x="663.5" y="50" width="45" height="50" as="geometry" />
        </mxCell>
        <mxCell id="Vcdu8m01-dEKTfZSmj1O-29" style="edgeStyle=orthogonalEdgeStyle;rounded=0;orthogonalLoop=1;jettySize=auto;html=1;entryX=0.5;entryY=0;entryDx=0;entryDy=0;entryPerimeter=0;" edge="1" parent="1" source="Vcdu8m01-dEKTfZSmj1O-15" target="Vcdu8m01-dEKTfZSmj1O-28">
          <mxGeometry relative="1" as="geometry" />
        </mxCell>
        <mxCell id="Vcdu8m01-dEKTfZSmj1O-15" value="VM1 Landing Zone" style="verticalLabelPosition=bottom;html=1;verticalAlign=top;align=center;strokeColor=none;fillColor=#00BEF2;shape=mxgraph.azure.virtual_machine;" vertex="1" parent="1">
          <mxGeometry x="340" y="140" width="140" height="110" as="geometry" />
        </mxCell>
        <mxCell id="Vcdu8m01-dEKTfZSmj1O-6" value="File Server" style="sketch=0;outlineConnect=0;fontColor=#232F3E;gradientColor=none;fillColor=#3F8624;strokeColor=none;dashed=0;verticalLabelPosition=bottom;verticalAlign=top;align=center;html=1;fontSize=12;fontStyle=0;aspect=fixed;pointerEvents=1;shape=mxgraph.aws4.file_system;" vertex="1" parent="1">
          <mxGeometry x="347" y="160" width="42.74" height="40" as="geometry" />
        </mxCell>
        <mxCell id="Vcdu8m01-dEKTfZSmj1O-10" style="edgeStyle=orthogonalEdgeStyle;rounded=0;orthogonalLoop=1;jettySize=auto;html=1;" edge="1" parent="1" source="Vcdu8m01-dEKTfZSmj1O-7">
          <mxGeometry relative="1" as="geometry">
            <mxPoint x="340" y="177" as="targetPoint" />
            <Array as="points">
              <mxPoint x="220" y="91" />
              <mxPoint x="220" y="177" />
            </Array>
          </mxGeometry>
        </mxCell>
        <mxCell id="Vcdu8m01-dEKTfZSmj1O-24" value="Daily Transfer" style="edgeLabel;html=1;align=center;verticalAlign=middle;resizable=0;points=[];" vertex="1" connectable="0" parent="Vcdu8m01-dEKTfZSmj1O-10">
          <mxGeometry x="-0.3576" y="1" relative="1" as="geometry">
            <mxPoint x="49" y="63" as="offset" />
          </mxGeometry>
        </mxCell>
        <mxCell id="Vcdu8m01-dEKTfZSmj1O-7" value="Oracle ERPR GFIS" style="verticalLabelPosition=bottom;html=1;verticalAlign=top;strokeWidth=1;align=center;outlineConnect=0;dashed=0;outlineConnect=0;shape=mxgraph.aws3d.oracleDataCenter;fillColor=#ffffff;strokeColor=#5E5E5E;aspect=fixed;" vertex="1" parent="1">
          <mxGeometry x="100" y="60" width="53" height="61.19" as="geometry" />
        </mxCell>
        <mxCell id="Vcdu8m01-dEKTfZSmj1O-12" value="JSON" style="shape=image;verticalLabelPosition=bottom;labelBackgroundColor=#ffffff;verticalAlign=top;aspect=fixed;imageAspect=0;image=data:image/svg+xml,PHN2ZyB4bWxuczpjYz0iaHR0cDovL2NyZWF0aXZlY29tbW9ucy5vcmcvbnMjIiB4bWxuczpkYz0iaHR0cDovL3B1cmwub3JnL2RjL2VsZW1lbnRzLzEuMS8iIHhtbG5zOmlua3NjYXBlPSJodHRwOi8vd3d3Lmlua3NjYXBlLm9yZy9uYW1lc3BhY2VzL2lua3NjYXBlIiB4bWxuczpyZGY9Imh0dHA6Ly93d3cudzMub3JnLzE5OTkvMDIvMjItcmRmLXN5bnRheC1ucyMiIHhtbG5zOnNvZGlwb2RpPSJodHRwOi8vc29kaXBvZGkuc291cmNlZm9yZ2UubmV0L0RURC9zb2RpcG9kaS0wLmR0ZCIgeG1sbnM6c3ZnPSJodHRwOi8vd3d3LnczLm9yZy8yMDAwL3N2ZyIgeG1sbnM9Imh0dHA6Ly93d3cudzMub3JnLzIwMDAvc3ZnIiB4bWxuczp4bGluaz0iaHR0cDovL3d3dy53My5vcmcvMTk5OS94bGluayIgdmVyc2lvbj0iMS4xIiBpZD0ic3ZnNDkxMzUiIGlua3NjYXBlOnZlcnNpb249IjAuOTIuMyAoMjQwNTU0NiwgMjAxOC0wMy0xMSkiIHNvZGlwb2RpOmRvY25hbWU9Impzb24uc3ZnIiB4PSIwcHgiIHk9IjBweCIgdmlld0JveD0iMCAwIDI2LjcyIDM1LjE1IiBzdHlsZT0iZW5hYmxlLWJhY2tncm91bmQ6bmV3IDAgMCAyNi43MiAzNS4xNTsiIHhtbDpzcGFjZT0icHJlc2VydmUiPiYjeGE7PHNvZGlwb2RpOm5hbWVkdmlldyBib3JkZXJjb2xvcj0iIzY2NjY2NiIgYm9yZGVyb3BhY2l0eT0iMSIgZml0LW1hcmdpbi1ib3R0b209IjAiIGZpdC1tYXJnaW4tbGVmdD0iMCIgZml0LW1hcmdpbi1yaWdodD0iMCIgZml0LW1hcmdpbi10b3A9IjAiIGdyaWR0b2xlcmFuY2U9IjEwIiBndWlkZXRvbGVyYW5jZT0iMTAiIGlkPSJuYW1lZHZpZXc0OTEzNyIgaW5rc2NhcGU6Y3VycmVudC1sYXllcj0ic3ZnNDkxMzUiIGlua3NjYXBlOmN4PSIxNy44MTIxNTYiIGlua3NjYXBlOmN5PSIyMy40MzU4OTYiIGlua3NjYXBlOnBhZ2VvcGFjaXR5PSIwIiBpbmtzY2FwZTpwYWdlc2hhZG93PSIyIiBpbmtzY2FwZTp3aW5kb3ctaGVpZ2h0PSIxMDE3IiBpbmtzY2FwZTp3aW5kb3ctbWF4aW1pemVkPSIxIiBpbmtzY2FwZTp3aW5kb3ctd2lkdGg9IjE5MjAiIGlua3NjYXBlOndpbmRvdy14PSItOCIgaW5rc2NhcGU6d2luZG93LXk9Ii04IiBpbmtzY2FwZTp6b29tPSIxMS40MDYwODkiIG9iamVjdHRvbGVyYW5jZT0iMTAiIHBhZ2Vjb2xvcj0iI2ZmZmZmZiIgc2hvd2dyaWQ9ImZhbHNlIj4mI3hhOwk8L3NvZGlwb2RpOm5hbWVkdmlldz4mI3hhOzxnIGlkPSJnNDkxMzMiIHRyYW5zZm9ybT0idHJhbnNsYXRlKC0xMC45Mjg2LC0xMC45MzE0KSI+JiN4YTsJPHRpdGxlIGlkPSJ0aXRsZTQ5MDYxIj5QYWdlLTE8L3RpdGxlPiYjeGE7CTxnIGlkPSJncm91cDM5ODgtMSIgdHJhbnNmb3JtPSJ0cmFuc2xhdGUoMTAuOTI4NiwtMTAuOTI4NikiPiYjeGE7CQk8dGl0bGUgaWQ9InRpdGxlNDkwNjMiPkpTT04uMjY2PC90aXRsZT4mI3hhOwkJPGcgaWQ9Imdyb3VwMzk4OS0yIj4mI3hhOwkJCTx0aXRsZSBpZD0idGl0bGU0OTA2NSI+SlM8L3RpdGxlPiYjeGE7CQkJPGcgaWQ9Imdyb3VwMzk5MC0zIj4mI3hhOwkJCQk8dGl0bGUgaWQ9InRpdGxlNDkwNjciPlNoZWV0LjM5OTA8L3RpdGxlPiYjeGE7CQkJCTxnIGlkPSJzaGFwZTM5OTEtNCI+JiN4YTsJCQkJCTx0aXRsZSBpZD0idGl0bGU0OTA2OSI+U2hlZXQuMzk5MTwvdGl0bGU+JiN4YTsJCQkJCTxwYXRoIGlkPSJwYXRoNDkwNzEiIGlua3NjYXBlOmNvbm5lY3Rvci1jdXJ2YXR1cmU9IjAiIHN0eWxlPSJmaWxsOiNFOUU5RTA7IiBkPSJNMTguOTQsMjEuODZIMC45MWMtMC41LDAtMC45MSwwLjQxLTAuOTEsMS4yMSAgICAgICB2MzMuMzFjMCwwLjIyLDAuNDEsMC42MywwLjkxLDAuNjNoMjQuOWMwLjUsMCwwLjkxLTAuNDEsMC45MS0wLjYzVjMwYzAtMC40My0wLjA2LTAuNTctMC4xNi0wLjY4bC03LjIzLTcuMyAgICAgICBDMTkuMjMsMjEuOTIsMTkuMDksMjEuODYsMTguOTQsMjEuODZ6Ii8+JiN4YTsJCQkJPC9nPiYjeGE7CQkJCTxnIGlkPSJzaGFwZTM5OTItNiIgdHJhbnNmb3JtPSJ0cmFuc2xhdGUoMTkuMjYyLC0yNy42MTkzKSI+JiN4YTsJCQkJCTx0aXRsZSBpZD0idGl0bGU0OTA3NCI+U2hlZXQuMzk5MjwvdGl0bGU+JiN4YTsJCQkJCTxwYXRoIGlkPSJwYXRoNDkwNzYiIGlua3NjYXBlOmNvbm5lY3Rvci1jdXJ2YXR1cmU9IjAiIHN0eWxlPSJmaWxsOiNEOUQ3Q0E7IiBkPSJNMCw0OS41N3Y3LjQ0aDcuMzZMMCw0OS41N3oiLz4mI3hhOwkJCQk8L2c+JiN4YTsJCQkJPGcgaWQ9InNoYXBlMzk5My04Ij4mI3hhOwkJCQkJPHRpdGxlIGlkPSJ0aXRsZTQ5MDc5Ij5TaGVldC4zOTkzPC90aXRsZT4mI3hhOwkJCQkJPHBhdGggaWQ9InBhdGg0OTA4MSIgaW5rc2NhcGU6Y29ubmVjdG9yLWN1cnZhdHVyZT0iMCIgc3R5bGU9ImZpbGw6I0U5QUM0NzsiIGQ9Ik0yNS44MSw1Ny4wMUgwLjkxQzAuNDEsNTcuMDEsMCw1Ni42LDAsNTYuMDkgICAgICAgdi05Ljc1aDI2LjcydjkuNzVDMjYuNzIsNTYuNiwyNi4zMSw1Ny4wMSwyNS44MSw1Ny4wMXoiLz4mI3hhOwkJCQk8L2c+JiN4YTsJCQkJPGcgaWQ9Imdyb3VwMzk5NC0xMCIgdHJhbnNmb3JtPSJ0cmFuc2xhdGUoNC45NzA4NSwtMTUuMDY1MSkiPiYjeGE7CQkJCQk8dGl0bGUgaWQ9InRpdGxlNDkwODQiPlNoZWV0LjM5OTQ8L3RpdGxlPiYjeGE7CQkJCQk8ZyBpZD0ic2hhcGUzOTk1LTExIj4mI3hhOwkJCQkJCTx0aXRsZSBpZD0idGl0bGU0OTA4NiI+U2hlZXQuMzk5NTwvdGl0bGU+JiN4YTsJCQkJCQk8cGF0aCBpZD0icGF0aDQ5MDg4IiBpbmtzY2FwZTpjb25uZWN0b3ItY3VydmF0dXJlPSIwIiBzdHlsZT0iZmlsbDojRTlBQzQ3OyIgZD0iTTMuMTEsNDguODV2LTIuNTEgICAgICAgIGMwLTAuMzUsMC4yOC0wLjYzLDAuNjItMC42M3MwLjYyLTAuMjgsMC42Mi0wLjYzYzAtMC4zNC0wLjI4LTAuNjMtMC42Mi0wLjYzYy0xLjAzLDAtMS44NywwLjg1LTEuODcsMS44OXYyLjUxICAgICAgICBjMCwwLjY5LTAuNTUsMS4yNS0xLjI0LDEuMjVDMC4yOCw1MC4xLDAsNTAuMzksMCw1MC43M2MwLDAuMzUsMC4yOCwwLjYzLDAuNjIsMC42M2MwLjY5LDAsMS4yNCwwLjU2LDEuMjQsMS4yNnYyLjUxICAgICAgICBjMCwxLjAzLDAuODQsMS44OCwxLjg3LDEuODhjMC4zNCwwLDAuNjItMC4yOCwwLjYyLTAuNjNjMC0wLjM1LTAuMjgtMC42My0wLjYyLTAuNjNzLTAuNjItMC4yOC0wLjYyLTAuNjJ2LTIuNTEgICAgICAgIGMwLTAuNzYtMC4zNC0xLjQzLTAuODYtMS44OUMyLjc3LDUwLjI3LDMuMTEsNDkuNiwzLjExLDQ4Ljg1eiIvPiYjeGE7CQkJCQk8L2c+JiN4YTsJCQkJCTxnIGlkPSJzaGFwZTM5OTYtMTMiIHRyYW5zZm9ybT0idHJhbnNsYXRlKDcuMTQ1NTksLTcuNTMyNTQpIj4mI3hhOwkJCQkJCTx0aXRsZSBpZD0idGl0bGU0OTA5MSI+U2hlZXQuMzk5NjwvdGl0bGU+JiN4YTsJCQkJCQk8ZWxsaXBzZSBpZD0iZWxsaXBzZTQ5MDkzIiBzdHlsZT0iZmlsbDojRTlBQzQ3OyIgY3g9IjAuOTMiIGN5PSI1Ni4wNyIgcng9IjAuOTMiIHJ5PSIwLjk0Ii8+JiN4YTsJCQkJCTwvZz4mI3hhOwkJCQkJPGcgaWQ9InNoYXBlMzk5Ny0xNSIgdHJhbnNmb3JtPSJ0cmFuc2xhdGUoMTEuODA1OCkiPiYjeGE7CQkJCQkJPHRpdGxlIGlkPSJ0aXRsZTQ5MDk2Ij5TaGVldC4zOTk3PC90aXRsZT4mI3hhOwkJCQkJCTxwYXRoIGlkPSJwYXRoNDkwOTgiIGlua3NjYXBlOmNvbm5lY3Rvci1jdXJ2YXR1cmU9IjAiIHN0eWxlPSJmaWxsOiNFOUFDNDc7IiBkPSJNMy43Myw1MC4xYy0wLjY5LDAtMS4yNC0wLjU2LTEuMjQtMS4yNSAgICAgICAgdi0yLjUxYzAtMS4wNC0wLjg0LTEuODktMS44Ny0xLjg5QzAuMjgsNDQuNDUsMCw0NC43NCwwLDQ1LjA4YzAsMC4zNSwwLjI4LDAuNjMsMC42MiwwLjYzczAuNjIsMC4yOCwwLjYyLDAuNjN2Mi41MSAgICAgICAgYzAsMC43NSwwLjM0LDEuNDIsMC44NiwxLjg4Yy0wLjUyLDAuNDYtMC44NiwxLjEzLTAuODYsMS44OXYyLjUxYzAsMC4zNC0wLjI4LDAuNjItMC42MiwwLjYyUzAsNTYuMDMsMCw1Ni4zOCAgICAgICAgYzAsMC4zNSwwLjI4LDAuNjMsMC42MiwwLjYzYzEuMDMsMCwxLjg3LTAuODUsMS44Ny0xLjg4di0yLjUxYzAtMC43LDAuNTUtMS4yNiwxLjI0LTEuMjZjMC4zNCwwLDAuNjItMC4yOCwwLjYyLTAuNjMgICAgICAgIEM0LjM1LDUwLjM5LDQuMDcsNTAuMSwzLjczLDUwLjF6Ii8+JiN4YTsJCQkJCTwvZz4mI3hhOwkJCQkJPGcgaWQ9InNoYXBlMzk5OC0xNyIgdHJhbnNmb3JtPSJ0cmFuc2xhdGUoNy40NTYyNywtMS44ODMxNCkiPiYjeGE7CQkJCQkJPHRpdGxlIGlkPSJ0aXRsZTQ5MTAxIj5TaGVldC4zOTk4PC90aXRsZT4mI3hhOwkJCQkJCTxwYXRoIGlkPSJwYXRoNDkxMDMiIGlua3NjYXBlOmNvbm5lY3Rvci1jdXJ2YXR1cmU9IjAiIHN0eWxlPSJmaWxsOiNFOUFDNDc7IiBkPSJNMC42Miw1My44N0MwLjI4LDUzLjg3LDAsNTQuMTUsMCw1NC41djEuODggICAgICAgIGMwLDAuMzUsMC4yOCwwLjYzLDAuNjIsMC42M3MwLjYyLTAuMjgsMC42Mi0wLjYzVjU0LjVDMS4yNCw1NC4xNSwwLjk2LDUzLjg3LDAuNjIsNTMuODd6Ii8+JiN4YTsJCQkJCTwvZz4mI3hhOwkJCQk8L2c+JiN4YTsJCQk8L2c+JiN4YTsJCTwvZz4mI3hhOwkJPGcgaWQ9Imdyb3VwMzk5OS0xOSIgdHJhbnNmb3JtPSJ0cmFuc2xhdGUoMy44MTMzNCwtMi40NTc4MSkiPiYjeGE7CQkJPHRpdGxlIGlkPSJ0aXRsZTQ5MTA5Ij5KU09OLjM2NjY0PC90aXRsZT4mI3hhOwkJCTxnIGlkPSJzaGFwZTQwMDAtMjAiIHRyYW5zZm9ybT0idHJhbnNsYXRlKDAsLTUuMzA5NzJlLTUpIj4mI3hhOwkJCQk8dGl0bGUgaWQ9InRpdGxlNDkxMTEiPlNoZWV0LjQwMDA8L3RpdGxlPiYjeGE7CQkJCTxwYXRoIGlkPSJwYXRoNDkxMTMiIGlua3NjYXBlOmNvbm5lY3Rvci1jdXJ2YXR1cmU9IjAiIHN0eWxlPSJmaWxsOiNGRkZGRkY7IiBkPSJNMy40OCw1MS4xN3Y0LjQzYzAsMC4yNi0wLjA1LDAuNDktMC4xNSwwLjY3ICAgICAgYy0wLjA5LDAuMTgtMC4yMywwLjMzLTAuMzksMC40NGMtMC4xNiwwLjExLTAuMzUsMC4xOS0wLjU3LDAuMjNjLTAuMjEsMC4wNS0wLjQzLDAuMDctMC42NiwwLjA3Yy0wLjExLDAtMC4yNC0wLjAxLTAuMzktMC4wNCAgICAgIGMtMC4xNi0wLjAyLTAuMzEtMC4wNS0wLjQ4LTAuMWMtMC4xNi0wLjA1LTAuMzEtMC4xMS0wLjQ2LTAuMTdDMC4yMyw1Ni42NCwwLjEsNTYuNTcsMCw1Ni40OWwwLjM5LTAuNjIgICAgICBjMC4wNSwwLjAzLDAuMTMsMC4wNywwLjIyLDAuMTFjMC4xLDAuMDQsMC4yLDAuMDcsMC4zMiwwLjExYzAuMTEsMC4wMywwLjIzLDAuMDYsMC4zNSwwLjA5YzAuMTIsMC4wMiwwLjI0LDAuMDMsMC4zNSwwLjAzICAgICAgYzAuMjcsMCwwLjQ5LTAuMDUsMC42NS0wLjE1YzAuMTYtMC4xMSwwLjI1LTAuMjksMC4yNi0wLjU0di00LjM1TDMuNDgsNTEuMTd6Ii8+JiN4YTsJCQk8L2c+JiN4YTsJCQk8ZyBpZD0ic2hhcGU0MDAxLTIyIiB0cmFuc2Zvcm09InRyYW5zbGF0ZSg0Ljc4NDA1LC0wLjAwNzg1ODM4KSI+JiN4YTsJCQkJPHRpdGxlIGlkPSJ0aXRsZTQ5MTE2Ij5TaGVldC40MDAxPC90aXRsZT4mI3hhOwkJCQk8cGF0aCBpZD0icGF0aDQ5MTE4IiBpbmtzY2FwZTpjb25uZWN0b3ItY3VydmF0dXJlPSIwIiBzdHlsZT0iZmlsbDojRkZGRkZGOyIgZD0iTTMuMyw1NS40MmMwLDAuMjEtMC4wNCwwLjQtMC4xMiwwLjYgICAgICBjLTAuMDksMC4xOS0wLjIxLDAuMzYtMC4zNiwwLjUxYy0wLjE2LDAuMTQtMC4zNSwwLjI2LTAuNTcsMC4zNWMtMC4yMywwLjA5LTAuNDksMC4xMy0wLjc4LDAuMTNjLTAuMTIsMC0wLjI1LTAuMDEtMC4zOC0wLjAyICAgICAgYy0wLjEzLTAuMDEtMC4yNi0wLjA0LTAuNC0wLjA3Yy0wLjEzLTAuMDMtMC4yNi0wLjA3LTAuMzgtMC4xMkMwLjE5LDU2Ljc0LDAuMDksNTYuNjgsMCw1Ni42bDAuMTYtMC42NiAgICAgIGMwLjA3LDAuMDQsMC4xNywwLjA4LDAuMjgsMC4xMmMwLjExLDAuMDMsMC4yMiwwLjA3LDAuMzQsMC4xYzAuMTIsMC4wNCwwLjI0LDAuMDYsMC4zNSwwLjA4YzAuMTIsMC4wMywwLjIzLDAuMDQsMC4zNCwwLjA0ICAgICAgYzAuMzEsMCwwLjU1LTAuMDgsMC43Mi0wLjIyYzAuMTYtMC4xNSwwLjI1LTAuMzcsMC4yNS0wLjY2YzAtMC4xNy0wLjA2LTAuMzItMC4xOC0wLjQ0Yy0wLjEyLTAuMTMtMC4yNy0wLjI0LTAuNDQtMC4zNCAgICAgIGMtMC4xOC0wLjEtMC4zNy0wLjItMC41OC0wLjNjLTAuMi0wLjEtMC40LTAuMjItMC41OC0wLjM2Yy0wLjE4LTAuMTMtMC4zMy0wLjI5LTAuNDQtMC40OGMtMC4xMi0wLjE4LTAuMTgtMC40MS0wLjE4LTAuNjkgICAgICBjMC0wLjI1LDAuMDQtMC40OCwwLjE0LTAuNjdjMC4wOS0wLjIsMC4yMS0wLjM2LDAuMzctMC41czAuMzQtMC4yNCwwLjU1LTAuMzFjMC4yMS0wLjA4LDAuNDMtMC4xMSwwLjY2LTAuMTEgICAgICBjMC4yNCwwLDAuNDgsMC4wMiwwLjcyLDAuMDZjMC4yNCwwLjA1LDAuNDMsMC4xMiwwLjU4LDAuMjJDMy4wMyw1MS41NCwzLDUxLjYyLDIuOTYsNTEuN2MtMC4wNSwwLjA4LTAuMDgsMC4xNS0wLjEyLDAuMjIgICAgICBjLTAuMDQsMC4wNy0wLjA3LDAuMTMtMC4wOSwwLjE3Yy0wLjAzLDAuMDUtMC4wNCwwLjA4LTAuMDUsMC4wOGMtMC4wMy0wLjAxLTAuMDYtMC4wMy0wLjEtMC4wNmMtMC4wNC0wLjAzLTAuMS0wLjA1LTAuMTctMC4wOCAgICAgIGMtMC4wNy0wLjAyLTAuMTctMC4wNC0wLjI5LTAuMDVjLTAuMTEtMC4wMS0wLjI3LTAuMDEtMC40NSwwLjAxYy0wLjEsMC4wMS0wLjIsMC4wNC0wLjI5LDAuMDhjLTAuMSwwLjA1LTAuMTgsMC4xMS0wLjI1LDAuMTkgICAgICBjLTAuMDcsMC4wNy0wLjEzLDAuMTUtMC4xNywwLjI0Yy0wLjA0LDAuMDktMC4wNiwwLjE4LTAuMDYsMC4yNmMwLDAuMiwwLjA2LDAuMzcsMC4xNywwLjVjMC4xMiwwLjEyLDAuMjcsMC4yMywwLjQ0LDAuMzMgICAgICBjMC4xOCwwLjA5LDAuMzcsMC4xOSwwLjU4LDAuMjhjMC4yLDAuMDgsMC4zOSwwLjE5LDAuNTcsMC4zMmMwLjE4LDAuMTMsMC4zMywwLjI5LDAuNDQsMC40OUMzLjI0LDU0Ljg3LDMuMyw1NS4xMiwzLjMsNTUuNDJ6Ii8+JiN4YTsJCQk8L2c+JiN4YTsJCQk8ZyBpZD0ic2hhcGU0MDAyLTI0IiB0cmFuc2Zvcm09InRyYW5zbGF0ZSg4LjkzNjUyKSI+JiN4YTsJCQkJPHRpdGxlIGlkPSJ0aXRsZTQ5MTIxIj5TaGVldC40MDAyPC90aXRsZT4mI3hhOwkJCQk8cGF0aCBpZD0icGF0aDQ5MTIzIiBpbmtzY2FwZTpjb25uZWN0b3ItY3VydmF0dXJlPSIwIiBzdHlsZT0iZmlsbDojRkZGRkZGOyIgZD0iTTQuNzQsNTQuMWMwLDAuNDgtMC4wNiwwLjktMC4xOCwxLjI3ICAgICAgYy0wLjEyLDAuMzYtMC4yOSwwLjY2LTAuNTEsMC45MWMtMC4yMSwwLjI0LTAuNDYsMC40Mi0wLjc0LDAuNTRjLTAuMjksMC4xMy0wLjYsMC4xOS0wLjk0LDAuMTlzLTAuNjUtMC4wNi0wLjk0LTAuMTkgICAgICBjLTAuMjgtMC4xMi0wLjUzLTAuMy0wLjc1LTAuNTRjLTAuMjEtMC4yNS0wLjM4LTAuNTUtMC41LTAuOTFDMC4wNiw1NSwwLDU0LjU4LDAsNTQuMWMwLTAuNDgsMC4wNi0wLjksMC4xOC0xLjI2ICAgICAgczAuMjktMC42NywwLjUtMC45MWMwLjIyLTAuMjQsMC40Ny0wLjQyLDAuNzUtMC41NWMwLjI5LTAuMTMsMC42LTAuMTksMC45NC0wLjE5czAuNjUsMC4wNiwwLjk0LDAuMTkgICAgICBjMC4yOCwwLjEzLDAuNTMsMC4zMSwwLjc0LDAuNTVjMC4yMiwwLjI0LDAuMzksMC41NSwwLjUxLDAuOTFDNC42OCw1My4yLDQuNzQsNTMuNjIsNC43NCw1NC4xeiBNMi4zNSw1Ni4yNSAgICAgIGMwLjE5LDAsMC4zNy0wLjAzLDAuNTQtMC4xMWMwLjE3LTAuMDcsMC4zMy0wLjIsMC40Ni0wLjM2YzAuMTQtMC4xNywwLjI1LTAuNCwwLjMyLTAuNjdjMC4wOC0wLjI4LDAuMTItMC42MSwwLjEzLTEuMDEgICAgICBjLTAuMDEtMC4zOS0wLjA1LTAuNzEtMC4xMi0wLjk4Yy0wLjA4LTAuMjctMC4xOC0wLjUtMC4zMS0wLjY3Yy0wLjEzLTAuMTgtMC4yOC0wLjMtMC40NS0wLjM4Yy0wLjE3LTAuMDgtMC4zNC0wLjExLTAuNTMtMC4xMSAgICAgIGMtMC4xOSwwLTAuMzcsMC4wMy0wLjU0LDAuMWMtMC4xOCwwLjA4LTAuMzMsMC4yLTAuNDcsMC4zN2MtMC4xMywwLjE3LTAuMjQsMC4zOS0wLjMyLDAuNjdjLTAuMDcsMC4yNy0wLjExLDAuNi0wLjEyLDEgICAgICBjMC4wMSwwLjM5LDAuMDUsMC43MiwwLjEyLDAuOTljMC4wOCwwLjI3LDAuMTgsMC40OSwwLjMxLDAuNjdjMC4xMywwLjE3LDAuMjgsMC4yOSwwLjQ1LDAuMzdDMS45OCw1Ni4yMSwyLjE2LDU2LjI1LDIuMzUsNTYuMjUgICAgICB6Ii8+JiN4YTsJCQk8L2c+JiN4YTsJCQk8ZyBpZD0ic2hhcGU0MDAzLTI2IiB0cmFuc2Zvcm09InRyYW5zbGF0ZSgxNC45Nzg3LC0wLjAzODM4OTIpIj4mI3hhOwkJCQk8dGl0bGUgaWQ9InRpdGxlNDkxMjYiPlNoZWV0LjQwMDM8L3RpdGxlPiYjeGE7CQkJCTxwYXRoIGlkPSJwYXRoNDkxMjgiIGlua3NjYXBlOmNvbm5lY3Rvci1jdXJ2YXR1cmU9IjAiIHN0eWxlPSJmaWxsOiNGRkZGRkY7IiBkPSJNNC4xMSw1MS4zMnY1LjY5SDMuMTdsLTIuMjMtMy45MnYzLjkySDB2LTUuNjkgICAgICBoMC45NGwyLjIzLDMuOTJ2LTMuOTJMNC4xMSw1MS4zMnoiLz4mI3hhOwkJCTwvZz4mI3hhOwkJPC9nPiYjeGE7CTwvZz4mI3hhOzwvZz4mI3hhOzwvc3ZnPg==;" vertex="1" parent="1">
          <mxGeometry x="390" y="80" width="27" height="35" as="geometry" />
        </mxCell>
        <mxCell id="Vcdu8m01-dEKTfZSmj1O-13" value="Parquet" style="sketch=0;outlineConnect=0;fontColor=#232F3E;gradientColor=none;fillColor=#3F8624;strokeColor=none;dashed=0;verticalLabelPosition=bottom;verticalAlign=top;align=center;html=1;fontSize=12;fontStyle=0;aspect=fixed;pointerEvents=1;shape=mxgraph.aws4.fsx_file_gateway;" vertex="1" parent="1">
          <mxGeometry x="430" y="85" width="30" height="30" as="geometry" />
        </mxCell>
        <mxCell id="Vcdu8m01-dEKTfZSmj1O-14" value="XML" style="shape=image;verticalLabelPosition=bottom;labelBackgroundColor=#ffffff;verticalAlign=top;aspect=fixed;imageAspect=0;image=data:image/svg+xml,PHN2ZyB4bWxuczpjYz0iaHR0cDovL2NyZWF0aXZlY29tbW9ucy5vcmcvbnMjIiB4bWxuczpkYz0iaHR0cDovL3B1cmwub3JnL2RjL2VsZW1lbnRzLzEuMS8iIHhtbG5zOmlua3NjYXBlPSJodHRwOi8vd3d3Lmlua3NjYXBlLm9yZy9uYW1lc3BhY2VzL2lua3NjYXBlIiB4bWxuczpyZGY9Imh0dHA6Ly93d3cudzMub3JnLzE5OTkvMDIvMjItcmRmLXN5bnRheC1ucyMiIHhtbG5zOnNvZGlwb2RpPSJodHRwOi8vc29kaXBvZGkuc291cmNlZm9yZ2UubmV0L0RURC9zb2RpcG9kaS0wLmR0ZCIgeG1sbnM6c3ZnPSJodHRwOi8vd3d3LnczLm9yZy8yMDAwL3N2ZyIgeG1sbnM9Imh0dHA6Ly93d3cudzMub3JnLzIwMDAvc3ZnIiB4bWxuczp4bGluaz0iaHR0cDovL3d3dy53My5vcmcvMTk5OS94bGluayIgdmVyc2lvbj0iMS4xIiBpZD0ic3ZnNTQ5OTQiIGlua3NjYXBlOnZlcnNpb249IjAuOTIuMyAoMjQwNTU0NiwgMjAxOC0wMy0xMSkiIHNvZGlwb2RpOmRvY25hbWU9InhtbC5zdmciIHg9IjBweCIgeT0iMHB4IiB2aWV3Qm94PSIwIDAgMjYuODUgMzUuMzIiIHN0eWxlPSJlbmFibGUtYmFja2dyb3VuZDpuZXcgMCAwIDI2Ljg1IDM1LjMyOyIgeG1sOnNwYWNlPSJwcmVzZXJ2ZSI+JiN4YTs8c29kaXBvZGk6bmFtZWR2aWV3IGJvcmRlcmNvbG9yPSIjNjY2NjY2IiBib3JkZXJvcGFjaXR5PSIxIiBmaXQtbWFyZ2luLWJvdHRvbT0iMCIgZml0LW1hcmdpbi1sZWZ0PSIwIiBmaXQtbWFyZ2luLXJpZ2h0PSIwIiBmaXQtbWFyZ2luLXRvcD0iMCIgZ3JpZHRvbGVyYW5jZT0iMTAiIGd1aWRldG9sZXJhbmNlPSIxMCIgaWQ9Im5hbWVkdmlldzU0OTk2IiBpbmtzY2FwZTpjdXJyZW50LWxheWVyPSJzdmc1NDk5NCIgaW5rc2NhcGU6Y3g9IjE3Ljg5Nzg4NCIgaW5rc2NhcGU6Y3k9IjIzLjU0OTc1NiIgaW5rc2NhcGU6cGFnZW9wYWNpdHk9IjAiIGlua3NjYXBlOnBhZ2VzaGFkb3c9IjIiIGlua3NjYXBlOndpbmRvdy1oZWlnaHQ9IjEwMTciIGlua3NjYXBlOndpbmRvdy1tYXhpbWl6ZWQ9IjEiIGlua3NjYXBlOndpbmRvdy13aWR0aD0iMTkyMCIgaW5rc2NhcGU6d2luZG93LXg9Ii04IiBpbmtzY2FwZTp3aW5kb3cteT0iLTgiIGlua3NjYXBlOnpvb209IjExLjM3MjMzNiIgb2JqZWN0dG9sZXJhbmNlPSIxMCIgcGFnZWNvbG9yPSIjZmZmZmZmIiBzaG93Z3JpZD0iZmFsc2UiPiYjeGE7CTwvc29kaXBvZGk6bmFtZWR2aWV3PiYjeGE7PGcgaWQ9Imc1NDk5MiIgdHJhbnNmb3JtPSJ0cmFuc2xhdGUoLTEwLjkyODYsLTEwLjkzMTQpIj4mI3hhOwk8dGl0bGUgaWQ9InRpdGxlNTQ5MjYiPlBhZ2UtMTwvdGl0bGU+JiN4YTsJPGcgaWQ9Imdyb3VwMzk2Mi0xIiB0cmFuc2Zvcm09InRyYW5zbGF0ZSgxMC45Mjg2LC0xMC45Mjg2KSI+JiN4YTsJCTx0aXRsZSBpZD0idGl0bGU1NDkyOCI+WE1MLjI2NDwvdGl0bGU+JiN4YTsJCTxnIGlkPSJncm91cDM5NjMtMiI+JiN4YTsJCQk8dGl0bGUgaWQ9InRpdGxlNTQ5MzAiPlNoZWV0LjM5NjM8L3RpdGxlPiYjeGE7CQkJPGcgaWQ9InNoYXBlMzk2NC0zIj4mI3hhOwkJCQk8dGl0bGUgaWQ9InRpdGxlNTQ5MzIiPlNoZWV0LjM5NjQ8L3RpdGxlPiYjeGE7CQkJCTxwYXRoIGlkPSJwYXRoNTQ5MzQiIGlua3NjYXBlOmNvbm5lY3Rvci1jdXJ2YXR1cmU9IjAiIHN0eWxlPSJmaWxsOiNFOUU5RTA7IiBkPSJNMTkuMDMsMjEuODZIMC45MWMtMC41LDAtMC45MSwwLjQxLTAuOTEsMS4yMSAgICAgIHYzMy40OGMwLDAuMjIsMC40MSwwLjYzLDAuOTEsMC42M2gyNS4wMmMwLjUxLDAsMC45Mi0wLjQxLDAuOTItMC42M1YzMC4wNGMwLTAuNDQtMC4wNi0wLjU4LTAuMTYtMC42OGwtNy4yNy03LjM0ICAgICAgQzE5LjMyLDIxLjkyLDE5LjE4LDIxLjg2LDE5LjAzLDIxLjg2eiIvPiYjeGE7CQkJPC9nPiYjeGE7CQkJPGcgaWQ9InNoYXBlMzk2NS01IiB0cmFuc2Zvcm09InRyYW5zbGF0ZSgxOS4zNTQ3LC0yNy43NTIzKSI+JiN4YTsJCQkJPHRpdGxlIGlkPSJ0aXRsZTU0OTM3Ij5TaGVldC4zOTY1PC90aXRsZT4mI3hhOwkJCQk8cGF0aCBpZD0icGF0aDU0OTM5IiBpbmtzY2FwZTpjb25uZWN0b3ItY3VydmF0dXJlPSIwIiBzdHlsZT0iZmlsbDojRDlEN0NBOyIgZD0iTTAsNDkuN3Y3LjQ4aDcuNEwwLDQ5Ljd6Ii8+JiN4YTsJCQk8L2c+JiN4YTsJCQk8ZyBpZD0ic2hhcGUzOTY2LTciPiYjeGE7CQkJCTx0aXRsZSBpZD0idGl0bGU1NDk0MiI+U2hlZXQuMzk2NjwvdGl0bGU+JiN4YTsJCQkJPHBhdGggaWQ9InBhdGg1NDk0NCIgaW5rc2NhcGU6Y29ubmVjdG9yLWN1cnZhdHVyZT0iMCIgc3R5bGU9ImZpbGw6IzRCQUNDNjsiIGQ9Ik0yNS45Myw1Ny4xOEgwLjkxYy0wLjUsMC0wLjkxLTAuNDEtMC45MS0wLjkyICAgICAgdi05LjhoMjYuODV2OS44QzI2Ljg1LDU2Ljc3LDI2LjQ0LDU3LjE4LDI1LjkzLDU3LjE4eiIvPiYjeGE7CQkJPC9nPiYjeGE7CQkJPGcgaWQ9Imdyb3VwMzk2Ny05IiB0cmFuc2Zvcm09InRyYW5zbGF0ZSg1LjAwMjI2LC0xLjg5MjIpIj4mI3hhOwkJCQk8dGl0bGUgaWQ9InRpdGxlNTQ5NDciPlNoZWV0LjM5Njc8L3RpdGxlPiYjeGE7CQkJCTxnIGlkPSJzaGFwZTM5NjgtMTAiPiYjeGE7CQkJCQk8dGl0bGUgaWQ9InRpdGxlNTQ5NDkiPlNoZWV0LjM5Njg8L3RpdGxlPiYjeGE7CQkJCQk8cGF0aCBpZD0icGF0aDU0OTUxIiBpbmtzY2FwZTpjb25uZWN0b3ItY3VydmF0dXJlPSIwIiBzdHlsZT0iZmlsbDojRkZGRkZGOyIgZD0iTTMuMDQsNTQuMDlsMS42LDMuMDlIMy40NWwtMS0yLjRIMi4zNiAgICAgICBsLTEuMDcsMi40SDAuMWwxLjYtMy4wOUwwLDUwLjgyaDEuMTdsMS4xMSwyLjU5aDAuMDhsMS4yMS0yLjU5aDEuMTdMMy4wNCw1NC4wOXoiLz4mI3hhOwkJCQk8L2c+JiN4YTsJCQkJPGcgaWQ9InNoYXBlMzk2OS0xMiIgdHJhbnNmb3JtPSJ0cmFuc2xhdGUoNi4xNDU0NCkiPiYjeGE7CQkJCQk8dGl0bGUgaWQ9InRpdGxlNTQ5NTQiPlNoZWV0LjM5Njk8L3RpdGxlPiYjeGE7CQkJCQk8cGF0aCBpZD0icGF0aDU0OTU2IiBpbmtzY2FwZTpjb25uZWN0b3ItY3VydmF0dXJlPSIwIiBzdHlsZT0iZmlsbDojRkZGRkZGOyIgZD0iTTQuNzcsNTAuODJoMS4wNHY2LjM2SDQuNzd2LTQuMzdsLTEuNDEsMy41MyAgICAgICBoLTAuOWwtMS40Mi0zLjUzdjQuMzdIMHYtNi4zNmgxLjA0bDEuODcsNC4zNUw0Ljc3LDUwLjgyeiIvPiYjeGE7CQkJCTwvZz4mI3hhOwkJCQk8ZyBpZD0ic2hhcGUzOTcwLTE0IiB0cmFuc2Zvcm09InRyYW5zbGF0ZSgxMy41Mzc3KSI+JiN4YTsJCQkJCTx0aXRsZSBpZD0idGl0bGU1NDk1OSI+U2hlZXQuMzk3MDwvdGl0bGU+JiN4YTsJCQkJCTxwYXRoIGlkPSJwYXRoNTQ5NjEiIGlua3NjYXBlOmNvbm5lY3Rvci1jdXJ2YXR1cmU9IjAiIHN0eWxlPSJmaWxsOiNGRkZGRkY7IiBkPSJNMS4wNCw1MC44MnY1LjU3aDIuOXYwLjc5SDB2LTYuMzZIMS4wNHoiLz4mI3hhOwkJCQk8L2c+JiN4YTsJCQk8L2c+JiN4YTsJCQk8ZyBpZD0ic2hhcGUzOTcxLTE2IiB0cmFuc2Zvcm09InRyYW5zbGF0ZSg0LjkzMzU5LC0yMC4xODM1KSI+JiN4YTsJCQkJPHRpdGxlIGlkPSJ0aXRsZTU0OTY1Ij5TaGVldC4zOTcxPC90aXRsZT4mI3hhOwkJCQk8cGF0aCBpZD0icGF0aDU0OTY3IiBpbmtzY2FwZTpjb25uZWN0b3ItY3VydmF0dXJlPSIwIiBzdHlsZT0iZmlsbDojNEJBQ0M2OyIgZD0iTTAuNjksNTcuMThjLTAuMTYsMC0wLjMyLTAuMDYtMC40NS0wLjE5ICAgICAgQzAsNTYuNzUsMCw1Ni4zNSwwLjI0LDU2LjFsMy43NS0zLjc4YzAuMjQtMC4yNSwwLjY0LTAuMjUsMC44OCwwYzAuMjUsMC4yNCwwLjI1LDAuNjQsMCwwLjg5bC0zLjc0LDMuNzggICAgICBDMS4wMSw1Ny4xMiwwLjg1LDU3LjE4LDAuNjksNTcuMTh6Ii8+JiN4YTsJCQk8L2c+JiN4YTsJCQk8ZyBpZD0ic2hhcGUzOTcyLTE4IiB0cmFuc2Zvcm09InRyYW5zbGF0ZSg0LjkzMzU5LC0xNi4zOTkxKSI+JiN4YTsJCQkJPHRpdGxlIGlkPSJ0aXRsZTU0OTcwIj5TaGVldC4zOTcyPC90aXRsZT4mI3hhOwkJCQk8cGF0aCBpZD0icGF0aDU0OTcyIiBpbmtzY2FwZTpjb25uZWN0b3ItY3VydmF0dXJlPSIwIiBzdHlsZT0iZmlsbDojNEJBQ0M2OyIgZD0iTTQuNDMsNTcuMThjLTAuMTYsMC0wLjMyLTAuMDYtMC40NC0wLjE5ICAgICAgbC0zLjc1LTMuNzhDMCw1Mi45NiwwLDUyLjU2LDAuMjQsNTIuMzJjMC4yNS0wLjI1LDAuNjQtMC4yNSwwLjg5LDBsMy43NCwzLjc4YzAuMjUsMC4yNSwwLjI1LDAuNjUsMCwwLjg5ICAgICAgQzQuNzUsNTcuMTIsNC41OSw1Ny4xOCw0LjQzLDU3LjE4eiIvPiYjeGE7CQkJPC9nPiYjeGE7CQkJPGcgaWQ9InNoYXBlMzk3My0yMCIgdHJhbnNmb3JtPSJ0cmFuc2xhdGUoMTYuMTcxOCwtMTYuMzk5MSkiPiYjeGE7CQkJCTx0aXRsZSBpZD0idGl0bGU1NDk3NSI+U2hlZXQuMzk3MzwvdGl0bGU+JiN4YTsJCQkJPHBhdGggaWQ9InBhdGg1NDk3NyIgaW5rc2NhcGU6Y29ubmVjdG9yLWN1cnZhdHVyZT0iMCIgc3R5bGU9ImZpbGw6IzRCQUNDNjsiIGQ9Ik0wLjY5LDU3LjE4Yy0wLjE2LDAtMC4zMi0wLjA2LTAuNDUtMC4xOSAgICAgIEMwLDU2Ljc1LDAsNTYuMzUsMC4yNCw1Ni4xbDMuNzUtMy43OGMwLjI0LTAuMjUsMC42NC0wLjI1LDAuODgsMGMwLjI1LDAuMjQsMC4yNSwwLjY0LDAsMC44OWwtMy43NCwzLjc4ICAgICAgQzEuMDEsNTcuMTIsMC44NSw1Ny4xOCwwLjY5LDU3LjE4eiIvPiYjeGE7CQkJPC9nPiYjeGE7CQkJPGcgaWQ9InNoYXBlMzk3NC0yMiIgdHJhbnNmb3JtPSJ0cmFuc2xhdGUoMTYuMTcxOCwtMjAuMTgzNSkiPiYjeGE7CQkJCTx0aXRsZSBpZD0idGl0bGU1NDk4MCI+U2hlZXQuMzk3NDwvdGl0bGU+JiN4YTsJCQkJPHBhdGggaWQ9InBhdGg1NDk4MiIgaW5rc2NhcGU6Y29ubmVjdG9yLWN1cnZhdHVyZT0iMCIgc3R5bGU9ImZpbGw6IzRCQUNDNjsiIGQ9Ik00LjQzLDU3LjE4Yy0wLjE2LDAtMC4zMi0wLjA2LTAuNDQtMC4xOSAgICAgIGwtMy43NS0zLjc4QzAsNTIuOTYsMCw1Mi41NiwwLjI0LDUyLjMyYzAuMjUtMC4yNSwwLjY0LTAuMjUsMC44OSwwbDMuNzQsMy43OGMwLjI1LDAuMjUsMC4yNSwwLjY1LDAsMC44OSAgICAgIEM0Ljc1LDU3LjEyLDQuNTksNTcuMTgsNC40Myw1Ny4xOHoiLz4mI3hhOwkJCTwvZz4mI3hhOwkJCTxnIGlkPSJzaGFwZTM5NzUtMjQiIHRyYW5zZm9ybT0idHJhbnNsYXRlKDEwLjUzNDYsLTE1LjEzNzYpIj4mI3hhOwkJCQk8dGl0bGUgaWQ9InRpdGxlNTQ5ODUiPlNoZWV0LjM5NzU8L3RpdGxlPiYjeGE7CQkJCTxwYXRoIGlkPSJwYXRoNTQ5ODciIGlua3NjYXBlOmNvbm5lY3Rvci1jdXJ2YXR1cmU9IjAiIHN0eWxlPSJmaWxsOiM0QkFDQzY7IiBkPSJNMC43LDU3LjE4Yy0wLjA3LDAtMC4xNC0wLjAxLTAuMi0wLjA0ICAgICAgYy0wLjMzLTAuMTEtMC41LTAuNDctMC4zOS0wLjhsMy43NS0xMC43M2MwLjEyLTAuMzIsMC40Ny0wLjUsMC44LTAuMzhjMC4zMiwwLjEyLDAuNDksMC40OCwwLjM4LDAuOEwxLjI5LDU2Ljc2ICAgICAgQzEuMiw1Ny4wMiwwLjk2LDU3LjE4LDAuNyw1Ny4xOHoiLz4mI3hhOwkJCTwvZz4mI3hhOwkJPC9nPiYjeGE7CTwvZz4mI3hhOzwvZz4mI3hhOzwvc3ZnPg==;" vertex="1" parent="1">
          <mxGeometry x="347" y="82.5" width="27" height="35" as="geometry" />
        </mxCell>
        <mxCell id="Vcdu8m01-dEKTfZSmj1O-22" style="edgeStyle=orthogonalEdgeStyle;rounded=0;orthogonalLoop=1;jettySize=auto;html=1;entryX=0;entryY=0.5;entryDx=0;entryDy=0;entryPerimeter=0;" edge="1" parent="1" source="Vcdu8m01-dEKTfZSmj1O-16" target="Vcdu8m01-dEKTfZSmj1O-15">
          <mxGeometry relative="1" as="geometry">
            <Array as="points">
              <mxPoint x="220" y="234" />
              <mxPoint x="220" y="195" />
            </Array>
          </mxGeometry>
        </mxCell>
        <mxCell id="Vcdu8m01-dEKTfZSmj1O-23" value="Daily Transfer" style="edgeLabel;html=1;align=center;verticalAlign=middle;resizable=0;points=[];" vertex="1" connectable="0" parent="Vcdu8m01-dEKTfZSmj1O-22">
          <mxGeometry x="-0.0606" y="-3" relative="1" as="geometry">
            <mxPoint x="43" y="-3" as="offset" />
          </mxGeometry>
        </mxCell>
        <mxCell id="Vcdu8m01-dEKTfZSmj1O-16" value="SAP Mercury HUB" style="shape=image;verticalLabelPosition=bottom;labelBackgroundColor=#ffffff;verticalAlign=top;aspect=fixed;imageAspect=0;image=data:image/svg+xml,PHN2ZyB4bWxuczpkYz0iaHR0cDovL3B1cmwub3JnL2RjL2VsZW1lbnRzLzEuMS8iIHhtbG5zOmNjPSJodHRwOi8vY3JlYXRpdmVjb21tb25zLm9yZy9ucyMiIHhtbG5zOnJkZj0iaHR0cDovL3d3dy53My5vcmcvMTk5OS8wMi8yMi1yZGYtc3ludGF4LW5zIyIgeG1sbnM6c3ZnPSJodHRwOi8vd3d3LnczLm9yZy8yMDAwL3N2ZyIgeG1sbnM9Imh0dHA6Ly93d3cudzMub3JnLzIwMDAvc3ZnIiB4bWxuczp4bGluaz0iaHR0cDovL3d3dy53My5vcmcvMTk5OS94bGluayIgeG1sbnM6c29kaXBvZGk9Imh0dHA6Ly9zb2RpcG9kaS5zb3VyY2Vmb3JnZS5uZXQvRFREL3NvZGlwb2RpLTAuZHRkIiB4bWxuczppbmtzY2FwZT0iaHR0cDovL3d3dy5pbmtzY2FwZS5vcmcvbmFtZXNwYWNlcy9pbmtzY2FwZSIgdmVyc2lvbj0iMS4xIiBpZD0iTGF5ZXJfMSIgeD0iMHB4IiB5PSIwcHgiIHZpZXdCb3g9IjAgMCAzNS45NTAwMDggMzEuNDUwMDA2IiB4bWw6c3BhY2U9InByZXNlcnZlIiBzb2RpcG9kaTpkb2NuYW1lPSJzYXBfY3VzdG9tX2RvbWFpbi5zdmciIHdpZHRoPSIzNS45NTAwMDgiIGhlaWdodD0iMzEuNDUwMDA2IiBpbmtzY2FwZTp2ZXJzaW9uPSIwLjkyLjMgKDI0MDU1NDYsIDIwMTgtMDMtMTEpIj48bWV0YWRhdGEgaWQ9Im1ldGFkYXRhNTI5MjEiPjxyZGY6UkRGPjxjYzpXb3JrIHJkZjphYm91dD0iIj48ZGM6Zm9ybWF0PmltYWdlL3N2Zyt4bWw8L2RjOmZvcm1hdD48ZGM6dHlwZSByZGY6cmVzb3VyY2U9Imh0dHA6Ly9wdXJsLm9yZy9kYy9kY21pdHlwZS9TdGlsbEltYWdlIi8+PGRjOnRpdGxlLz48L2NjOldvcms+PC9yZGY6UkRGPjwvbWV0YWRhdGE+PGRlZnMgaWQ9ImRlZnM1MjkxOSIvPjxzb2RpcG9kaTpuYW1lZHZpZXcgcGFnZWNvbG9yPSIjZmZmZmZmIiBib3JkZXJjb2xvcj0iIzY2NjY2NiIgYm9yZGVyb3BhY2l0eT0iMSIgb2JqZWN0dG9sZXJhbmNlPSIxMCIgZ3JpZHRvbGVyYW5jZT0iMTAiIGd1aWRldG9sZXJhbmNlPSIxMCIgaW5rc2NhcGU6cGFnZW9wYWNpdHk9IjAiIGlua3NjYXBlOnBhZ2VzaGFkb3c9IjIiIGlua3NjYXBlOndpbmRvdy13aWR0aD0iMTkyMCIgaW5rc2NhcGU6d2luZG93LWhlaWdodD0iMTAxNyIgaWQ9Im5hbWVkdmlldzUyOTE3IiBzaG93Z3JpZD0iZmFsc2UiIGZpdC1tYXJnaW4tdG9wPSIwIiBmaXQtbWFyZ2luLWxlZnQ9IjAiIGZpdC1tYXJnaW4tcmlnaHQ9IjAiIGZpdC1tYXJnaW4tYm90dG9tPSIwIiBpbmtzY2FwZTp6b29tPSIxLjAzMDMwMyIgaW5rc2NhcGU6Y3g9Ii0xOS41NTQ5OTMiIGlua3NjYXBlOmN5PSItMTc5LjUxIiBpbmtzY2FwZTp3aW5kb3cteD0iLTgiIGlua3NjYXBlOndpbmRvdy15PSItOCIgaW5rc2NhcGU6d2luZG93LW1heGltaXplZD0iMSIgaW5rc2NhcGU6Y3VycmVudC1sYXllcj0iTGF5ZXJfMSIvPiYjeGE7JiN4YTs8ZyBpZD0iZzUyOTE0IiB0cmFuc2Zvcm09InRyYW5zbGF0ZSgtMzE2LjkyOTk5LC0yMDkuNzg5OTkpIj4mI3hhOwk8ZGVmcyBpZD0iZGVmczUyODkzIj4mI3hhOwkJPHJlY3QgaWQ9IlNWR0lEXzNfIiB4PSIzMTYuOTI5OTkiIHk9IjIwOS43ODk5OSIgd2lkdGg9IjM2LjgyIiBoZWlnaHQ9IjMzLjk5MDAwMiIvPiYjeGE7CTwvZGVmcz4mI3hhOwk8Y2xpcFBhdGggaWQ9IlNWR0lEXzRfIj4mI3hhOwkJPHVzZSB4bGluazpocmVmPSIjU1ZHSURfM18iIHN0eWxlPSJvdmVyZmxvdzp2aXNpYmxlIiBpZD0idXNlNTI4OTUiIHg9IjAiIHk9IjAiIHdpZHRoPSIxMDAlIiBoZWlnaHQ9IjEwMCUiLz4mI3hhOwk8L2NsaXBQYXRoPiYjeGE7CTxnIGNsaXAtcGF0aD0idXJsKCNTVkdJRF80XykiIGlkPSJnNTI5MTIiPiYjeGE7CQk8ZGVmcyBpZD0iZGVmczUyODk5Ij4mI3hhOwkJCTxyZWN0IGlkPSJTVkdJRF81XyIgeD0iMzE2LjkyOTk5IiB5PSIyMDkuNzg5OTkiIHdpZHRoPSIzNi44MiIgaGVpZ2h0PSIzMy45OTAwMDIiLz4mI3hhOwkJPC9kZWZzPiYjeGE7CQk8Y2xpcFBhdGggaWQ9IlNWR0lEXzZfIj4mI3hhOwkJCTx1c2UgeGxpbms6aHJlZj0iI1NWR0lEXzVfIiBzdHlsZT0ib3ZlcmZsb3c6dmlzaWJsZSIgaWQ9InVzZTUyOTAxIiB4PSIwIiB5PSIwIiB3aWR0aD0iMTAwJSIgaGVpZ2h0PSIxMDAlIi8+JiN4YTsJCTwvY2xpcFBhdGg+JiN4YTsJCTxwYXRoIHN0eWxlPSJmaWxsOiM1YTdhOTQiIGQ9Im0gMzM5LjkzLDIwOS43OSBoIDcuOTEgYyAwLjMsMCAwLjU0LDAuMjQgMC41NCwwLjU0IHYgMS4xNCBjIDAsMC4zIC0wLjI0LDAuNiAtMC41NCwwLjYgaCAtNy45MSBjIC0wLjMsMCAtMC41NCwtMC4zIC0wLjU0LC0wLjYgdiAtMS4xNCBjIDAsLTAuMyAwLjI0LC0wLjU0IDAuNTQsLTAuNTQgeiIgY2xpcC1wYXRoPSJ1cmwoI1NWR0lEXzZfKSIgaWQ9InBhdGg1MjkwNCIgaW5rc2NhcGU6Y29ubmVjdG9yLWN1cnZhdHVyZT0iMCIvPiYjeGE7CQk8cGF0aCBzdHlsZT0iZmlsbDojNWE3YTk0IiBkPSJtIDMyOC43MywyMDkuNzkgaCA3Ljg1IGMgMC4zLDAgMC42LDAuMjQgMC42LDAuNTQgdiAxLjE0IGMgMCwwLjMgLTAuMywwLjYgLTAuNiwwLjYgaCAtNy44NSBjIC0wLjMsMCAtMC41NCwtMC4zIC0wLjU0LC0wLjYgdiAtMS4xNCBjIDAsLTAuMyAwLjI0LC0wLjU0IDAuNTQsLTAuNTQgeiIgY2xpcC1wYXRoPSJ1cmwoI1NWR0lEXzZfKSIgaWQ9InBhdGg1MjkwNiIgaW5rc2NhcGU6Y29ubmVjdG9yLWN1cnZhdHVyZT0iMCIvPiYjeGE7CQk8cGF0aCBzdHlsZT0iZmlsbDojNWE3YTk0IiBkPSJtIDM1MC42NSwyMTYuNTYgdiAwIDIyLjQ2IEggMzE5LjIgdiAtMjIuNDYgeiBtIC0zMy43MiwyMi40NiB2IDAgYyAwLDAuMyAwLjA2LDAuNTQgMC4xOCwwLjg0IDAuMjQsMC41NCAwLjY2LDAuOTYgMS4yLDEuMiAwLjMsMC4xMiAwLjYsMC4xOCAwLjksMC4xOCBoIDMxLjQ1IGMgMS4yLDAgMi4yMiwtMS4wMiAyLjIyLC0yLjIyIHYgLTIyLjQ2IGMgMCwtMS4yNiAtMS4wMiwtMi4yOCAtMi4yMiwtMi4yOCBoIC0yNC43NCB2IC0zLjk1IGMgMC4wNiwtMC4zIC0wLjI0LC0wLjYgLTAuNTQsLTAuNTQgaCAtNy45MSBjIC0wLjMsLTAuMDYgLTAuNiwwLjI0IC0wLjU0LDAuNTQgeiIgY2xpcC1wYXRoPSJ1cmwoI1NWR0lEXzZfKSIgaWQ9InBhdGg1MjkwOCIgaW5rc2NhcGU6Y29ubmVjdG9yLWN1cnZhdHVyZT0iMCIvPiYjeGE7CQk8cGF0aCBzdHlsZT0iZmlsbDojMDA5MmQxIiBkPSJtIDM0MS42MSwyMzAuMDQgaCAtMyBjIDAuMDYsLTAuNDIgMC4xOCwtMC43OCAwLjE4LC0xLjE0IDAuMDYsLTAuNDIgMC4wNiwtMC45IDAuMDYsLTEuMzIgMCwtMC43MiAtMC4wNiwtMS4zOCAtMC4xOCwtMi4wNCBoIDIuOTQgYyAwLjU0LDEuNDQgMC41NCwzIDAsNC41IHogbSAtMi43NiwzLjU5IGMgLTAuNzgsMC41NCAtMS42OCwwLjkgLTIuNjQsMS4wOCAwLjg0LC0wLjg0IDEuNSwtMS44NiAxLjkyLC0yLjk5IGggMi43IGMgLTAuNTQsMC43NyAtMS4yLDEuNDMgLTEuOTgsMS45MSB6IG0gLTMuOTUsMC43OCBjIC0wLjQyLC0wLjMgLTAuNzgsLTAuNzIgLTEuMDgsLTEuMTQgLTAuMzYsLTAuNDggLTAuNzIsLTEuMDIgLTAuOTYsLTEuNTYgSCAzMzcgYyAtMC40MiwxLjA4IC0xLjE0LDIuMDQgLTIuMSwyLjcgeiBtIC0zLjg5LC0wLjc4IGMgLTAuNzgsLTAuNDggLTEuNDQsLTEuMTQgLTEuOTgsLTEuOTIgaCAyLjcgYyAwLjQyLDEuMTQgMS4wOCwyLjE2IDEuOTIsMi45OSAtMC45NywtMC4xNyAtMS44NiwtMC41MyAtMi42NCwtMS4wNyB6IG0gLTIuNzYsLTMuNTkgYyAtMC4xMiwtMC4zNiAtMC4yNCwtMC43MiAtMC4zLC0xLjAyIC0wLjE4LC0wLjg0IC0wLjE4LC0xLjY4IDAsLTIuNTIgMC4wNiwtMC4zIDAuMTgsLTAuNjYgMC4zLC0wLjk2IGggMi45NCBjIC0wLjEyLDAuNjYgLTAuMjQsMS4zMiAtMC4yNCwyLjA0IDAsMC44NCAwLjEyLDEuNjIgMC4zLDIuNDYgeiBtIDQuOTEsLTkuMTEgYyAtMC42NiwwLjg0IC0xLjIsMS44NiAtMS41NiwyLjg3IGggLTIuNTggYyAwLjk3LC0xLjQzIDIuNDcsLTIuNTEgNC4xNCwtMi44NyB6IG0gMS43NCwtMC4xOCBjIDAuNDgsMC4zNiAwLjksMC43OCAxLjI2LDEuMzIgMC40MiwwLjU0IDAuNzIsMS4xNCAwLjk2LDEuNzQgaCAtNC4zNyBjIDAuNDEsLTEuMiAxLjEzLC0yLjI4IDIuMTUsLTMuMDYgeiBtIDIuOTQsNi44MyBjIDAsMC40MiAtMC4wNiwwLjkgLTAuMTIsMS4zMiAtMC4wNiwwLjM2IC0wLjEyLDAuNzIgLTAuMjQsMS4xNCBoIC01LjA5IGMgLTAuMTIsLTAuNDIgLTAuMTgsLTAuNzggLTAuMjQsLTEuMTQgLTAuMDYsLTAuNDIgLTAuMTIsLTAuOSAtMC4xMiwtMS4zMiAwLC0wLjcyIDAuMTIsLTEuMzggMC4yNCwtMi4wNCBoIDUuMzMgYyAwLjEyLDAuNjYgMC4yNCwxLjMyIDAuMjQsMi4wNCB6IG0gMi45OSwtMy43NyBoIC0yLjU4IGMgLTAuMzYsLTEuMDIgLTAuOSwtMi4wNCAtMS41NiwtMi44NyAxLjY4LDAuMzUgMy4xOCwxLjQzIDQuMTQsMi44NyB6IG0gMi40NiwwLjc4IGMgLTAuMzYsLTEuMDIgLTAuOSwtMS45MiAtMS41NiwtMi43IC0wLjY2LC0wLjc4IC0xLjUsLTEuNDQgLTIuNCwtMS45OCAtMC45NiwtMC41NCAtMS45OCwtMC44NCAtMywtMS4wMiAtMC4yNCwtMC4wNiAtMC40OCwtMC4wNiAtMC43MiwtMC4wNiAtMC40OCwtMC4wNiAtMC45LC0wLjA2IC0xLjM4LDAgLTAuMjQsMCAtMC40OCwwIC0wLjcyLDAuMDYgLTEuMDgsMC4xOCAtMi4xLDAuNDggLTMsMS4wMiAtMC45LDAuNTQgLTEuNzQsMS4yIC0yLjQsMS45OCAtMC43MiwwLjc4IC0xLjI2LDEuNzQgLTEuNjIsMi43IC0wLjQyLDEuMDIgLTAuNiwyLjEgLTAuNiwzLjE3IDAsMS4yIDAuMjQsMi40IDAuNzIsMy40NyAwLjksMi4xNiAyLjY0LDMuODkgNC43OSw0Ljc5IDEuMDgsMC40OCAyLjI4LDAuNzIgMy40NywwLjcyIDEuMiwwIDIuNCwtMC4yNCAzLjUzLC0wLjcyIDEuMDgsLTAuNDggMi4wNCwtMS4xNCAyLjg4LC0xLjkyIDEuNjgsLTEuNjggMi41OCwtMy45NSAyLjU4LC02LjM1IDAuMDMsLTEuMDcgLTAuMTUsLTIuMTUgLTAuNTcsLTMuMTYgeiIgY2xpcC1wYXRoPSJ1cmwoI1NWR0lEXzZfKSIgaWQ9InBhdGg1MjkxMCIgaW5rc2NhcGU6Y29ubmVjdG9yLWN1cnZhdHVyZT0iMCIvPiYjeGE7CTwvZz4mI3hhOzwvZz4mI3hhOzwvc3ZnPg==;" vertex="1" parent="1">
          <mxGeometry x="87.6" y="200" width="77.81" height="67" as="geometry" />
        </mxCell>
        <mxCell id="Vcdu8m01-dEKTfZSmj1O-51" value="File Structure copy" style="edgeStyle=orthogonalEdgeStyle;rounded=0;orthogonalLoop=1;jettySize=auto;html=1;entryX=1;entryY=0.691;entryDx=0;entryDy=0;entryPerimeter=0;" edge="1" parent="1" source="Vcdu8m01-dEKTfZSmj1O-17" target="Vcdu8m01-dEKTfZSmj1O-15">
          <mxGeometry relative="1" as="geometry">
            <Array as="points">
              <mxPoint x="560" y="219" />
              <mxPoint x="560" y="216" />
            </Array>
          </mxGeometry>
        </mxCell>
        <mxCell id="Vcdu8m01-dEKTfZSmj1O-55" style="edgeStyle=orthogonalEdgeStyle;rounded=0;orthogonalLoop=1;jettySize=auto;html=1;startArrow=none;entryX=1.019;entryY=0.182;entryDx=0;entryDy=0;entryPerimeter=0;" edge="1" parent="1" source="Vcdu8m01-dEKTfZSmj1O-49" target="Vcdu8m01-dEKTfZSmj1O-28">
          <mxGeometry relative="1" as="geometry">
            <mxPoint x="500" y="350" as="targetPoint" />
            <Array as="points">
              <mxPoint x="560" y="350" />
            </Array>
          </mxGeometry>
        </mxCell>
        <mxCell id="Vcdu8m01-dEKTfZSmj1O-17" value="EDW Database" style="shape=image;verticalLabelPosition=bottom;labelBackgroundColor=#ffffff;verticalAlign=top;aspect=fixed;imageAspect=0;image=data:image/svg+xml,PHN2ZyB4bWxuczpkYz0iaHR0cDovL3B1cmwub3JnL2RjL2VsZW1lbnRzLzEuMS8iIHhtbG5zOmNjPSJodHRwOi8vY3JlYXRpdmVjb21tb25zLm9yZy9ucyMiIHhtbG5zOnJkZj0iaHR0cDovL3d3dy53My5vcmcvMTk5OS8wMi8yMi1yZGYtc3ludGF4LW5zIyIgeG1sbnM6c3ZnPSJodHRwOi8vd3d3LnczLm9yZy8yMDAwL3N2ZyIgeG1sbnM9Imh0dHA6Ly93d3cudzMub3JnLzIwMDAvc3ZnIiB4bWxuczpzb2RpcG9kaT0iaHR0cDovL3NvZGlwb2RpLnNvdXJjZWZvcmdlLm5ldC9EVEQvc29kaXBvZGktMC5kdGQiIHhtbG5zOmlua3NjYXBlPSJodHRwOi8vd3d3Lmlua3NjYXBlLm9yZy9uYW1lc3BhY2VzL2lua3NjYXBlIiB2ZXJzaW9uPSIxLjEiIGlkPSJzdmc5NTc5NiIgaW5rc2NhcGU6dmVyc2lvbj0iMC45Mi4zICgyNDA1NTQ2LCAyMDE4LTAzLTExKSIgc29kaXBvZGk6ZG9jbmFtZT0ic3FsX2RhdGFfd2FyZWhvdXNlLnN2ZyIgeD0iMHB4IiB5PSIwcHgiIHZpZXdCb3g9IjAgMCA5OC44MyA5Ni4xIiB4bWw6c3BhY2U9InByZXNlcnZlIiB3aWR0aD0iOTguODMwMDAyIiBoZWlnaHQ9Ijk2LjA5OTk5OCI+PG1ldGFkYXRhIGlkPSJtZXRhZGF0YTE0OTkiPjxyZGY6UkRGPjxjYzpXb3JrIHJkZjphYm91dD0iIj48ZGM6Zm9ybWF0PmltYWdlL3N2Zyt4bWw8L2RjOmZvcm1hdD48ZGM6dHlwZSByZGY6cmVzb3VyY2U9Imh0dHA6Ly9wdXJsLm9yZy9kYy9kY21pdHlwZS9TdGlsbEltYWdlIi8+PGRjOnRpdGxlLz48L2NjOldvcms+PC9yZGY6UkRGPjwvbWV0YWRhdGE+PGRlZnMgaWQ9ImRlZnMxNDk3Ij4mI3hhOwkmI3hhOyYjeGE7CSYjeGE7JiN4YTsJJiN4YTsmI3hhOwkmI3hhOyYjeGE7CSYjeGE7JiN4YTsJJiN4YTsmI3hhOwkmI3hhOyYjeGE7CSYjeGE7JiN4YTsJJiN4YTsmI3hhOwkmI3hhOyYjeGE7CSYjeGE7JiN4YTsJJiN4YTsmI3hhOwkmI3hhOyYjeGE7CSYjeGE7JiN4YTsJJiN4YTsmI3hhOwkmI3hhOyYjeGE7CSYjeGE7JiN4YTsJJiN4YTsmI3hhOwkmI3hhOyYjeGE7CSYjeGE7JiN4YTsJJiN4YTsmI3hhOwkmI3hhOyYjeGE7CSYjeGE7JiN4YTsJJiN4YTsmI3hhOwkmI3hhOyYjeGE7CSYjeGE7JiN4YTsJJiN4YTsmI3hhOwkmI3hhOyYjeGE7CSYjeGE7JiN4YTsJJiN4YTsmI3hhOwkmI3hhOwkmI3hhOwkmI3hhOyYjeGE7CSYjeGE7CSYjeGE7CSYjeGE7JiN4YTsJJiN4YTsJJiN4YTsJJiN4YTsmI3hhOwkJJiN4YTsJJiN4YTsJCSYjeGE7CSYjeGE7CQkmI3hhOwkmI3hhOwkJJiN4YTsJJiN4YTsJCSYjeGE7CSYjeGE7CQkmI3hhOwkmI3hhOwkJJiN4YTsJJiN4YTsJCSYjeGE7CSYjeGE7CQkJJiN4YTsJCSYjeGE7CQkJJiN4YTsJCTwvZGVmcz4mI3hhOzxmaWx0ZXIgaWQ9ImZpbHRlcl8yIj4mI3hhOwk8ZmVHYXVzc2lhbkJsdXIgaWQ9ImZlR2F1c3NpYW5CbHVyOTU1MTIiIHN0ZERldmlhdGlvbj0iMiIvPiYjeGE7PC9maWx0ZXI+JiN4YTs8c29kaXBvZGk6bmFtZWR2aWV3IGJvcmRlcmNvbG9yPSIjNjY2NjY2IiBib3JkZXJvcGFjaXR5PSIxIiBmaXQtbWFyZ2luLWJvdHRvbT0iMCIgZml0LW1hcmdpbi1sZWZ0PSIwIiBmaXQtbWFyZ2luLXJpZ2h0PSIwIiBmaXQtbWFyZ2luLXRvcD0iMCIgZ3JpZHRvbGVyYW5jZT0iMTAiIGd1aWRldG9sZXJhbmNlPSIxMCIgaWQ9Im5hbWVkdmlldzk1Nzk4IiBpbmtzY2FwZTpjdXJyZW50LWxheWVyPSJzdmc5NTc5NiIgaW5rc2NhcGU6Y3g9IjM2LjgzOTc1MiIgaW5rc2NhcGU6Y3k9IjQ1LjQzNTQ0NiIgaW5rc2NhcGU6cGFnZW9wYWNpdHk9IjAiIGlua3NjYXBlOnBhZ2VzaGFkb3c9IjIiIGlua3NjYXBlOndpbmRvdy1oZWlnaHQ9IjEwMTciIGlua3NjYXBlOndpbmRvdy1tYXhpbWl6ZWQ9IjEiIGlua3NjYXBlOndpbmRvdy13aWR0aD0iMTkyMCIgaW5rc2NhcGU6d2luZG93LXg9Ii04IiBpbmtzY2FwZTp3aW5kb3cteT0iLTgiIGlua3NjYXBlOnpvb209IjQuNDgxMzgxNSIgb2JqZWN0dG9sZXJhbmNlPSIxMCIgcGFnZWNvbG9yPSIjZmZmZmZmIiBzaG93Z3JpZD0iZmFsc2UiPiYjeGE7CTwvc29kaXBvZGk6bmFtZWR2aWV3PiYjeGE7JiN4YTs8cmVjdCBpZD0icmVjdDk1NTI3IiB4PSIyMy44MDAwMDMiIHk9IjMwLjEzOTk5OSIgc3R5bGU9ImZpbGw6IzdmYmI0MiIgd2lkdGg9IjkuNDYiIGhlaWdodD0iOS40NiIvPiYjeGE7JiN4YTs8cmVjdCBpZD0icmVjdDk1NTM1IiB4PSIxNi4zMDAwMDMiIHk9IjU1Ljc5MDAwMSIgc3R5bGU9ImZpbGw6IzdmYmI0MiIgd2lkdGg9IjkuNDYiIGhlaWdodD0iOS40NiIvPiYjeGE7JiN4YTs8cmVjdCBpZD0icmVjdDk1NTQzIiB4PSIyOS43NjAwMSIgeT0iNTUuNzkwMDAxIiBzdHlsZT0iZmlsbDojN2ZiYjQyIiB3aWR0aD0iOS40NiIgaGVpZ2h0PSI5LjQ2Ii8+JiN4YTsmI3hhOzxyZWN0IGlkPSJyZWN0OTU1NTEiIHg9IjQzLjA4OTk5NiIgeT0iNTUuNzkwMDAxIiBzdHlsZT0iZmlsbDojN2ZiYjQyIiB3aWR0aD0iOS40NiIgaGVpZ2h0PSI5LjQ2Ii8+JiN4YTsmI3hhOzxyZWN0IGlkPSJyZWN0OTU1NTkiIHg9IjE2LjMwMDAwMyIgeT0iNDIuOTU5OTk5IiBzdHlsZT0iZmlsbDojN2ZiYjQyIiB3aWR0aD0iOS40NiIgaGVpZ2h0PSI5LjQ2Ii8+JiN4YTsmI3hhOzxyZWN0IGlkPSJyZWN0OTU1NjciIHg9IjI5Ljc2MDAxIiB5PSI0Mi45NTk5OTkiIHN0eWxlPSJmaWxsOiM3ZmJiNDIiIHdpZHRoPSI5LjQ2IiBoZWlnaHQ9IjkuNDYiLz4mI3hhOyYjeGE7PHBhdGggaWQ9InBhdGg5NTU3NSIgaW5rc2NhcGU6Y29ubmVjdG9yLWN1cnZhdHVyZT0iMCIgc3R5bGU9ImZpbGw6IzM5OTljNiIgZD0iTSAzNy4yNiwwIDAsMTkuOCB2IDUuNzggaCA3LjYxIHYgMzkuOTkgaCA2LjM2IFYgMjUuNTggaCA0Ni4zMiB2IDM3LjQ1IGggNyBWIDI1LjU4IGggNi45NyBWIDE5LjggWiIvPiYjeGE7JiN4YTs8cGF0aCBpZD0icGF0aDk1NTgzIiBpbmtzY2FwZTpjb25uZWN0b3ItY3VydmF0dXJlPSIwIiBzdHlsZT0iZmlsbDojYjhkNDMzO2ZpbGwtb3BhY2l0eTowLjgiIGQ9Ik0gMzMuMjYsMzkuNiBIIDMyLjE3IFYgMzEuMzYgSCAyMy44IHYgLTEuMjIgaCA5LjQ2IHoiLz4mI3hhOyYjeGE7PHBhdGggaWQ9InBhdGg5NTU5MSIgaW5rc2NhcGU6Y29ubmVjdG9yLWN1cnZhdHVyZT0iMCIgc3R5bGU9ImZpbGw6I2I4ZDQzMztmaWxsLW9wYWNpdHk6MC41IiBkPSJtIDIzLjgsMzAuMTQgaCAxLjA5IHYgOC4yNyBoIDguMzcgViAzOS42IEggMjMuOCBaIi8+JiN4YTsmI3hhOzxwYXRoIGlkPSJwYXRoOTU1OTkiIGlua3NjYXBlOmNvbm5lY3Rvci1jdXJ2YXR1cmU9IjAiIHN0eWxlPSJmaWxsOiNiOGQ0MzM7ZmlsbC1vcGFjaXR5OjAuOCIgZD0iTSAyNS43Niw1Mi40MiBIIDI0LjcgdiAtOC4yNCBoIC04LjQgdiAtMS4yMiBoIDkuNDYgeiIvPiYjeGE7JiN4YTs8cGF0aCBpZD0icGF0aDk1NjA3IiBpbmtzY2FwZTpjb25uZWN0b3ItY3VydmF0dXJlPSIwIiBzdHlsZT0iZmlsbDojYjhkNDMzO2ZpbGwtb3BhY2l0eTowLjUiIGQ9Im0gMTYuMyw0Mi45NiBoIDEuMDkgdiA4LjI0IGggOC4zNyB2IDEuMjIgSCAxNi4zIFoiLz4mI3hhOyYjeGE7PHBhdGggaWQ9InBhdGg5NTYxNSIgaW5rc2NhcGU6Y29ubmVjdG9yLWN1cnZhdHVyZT0iMCIgc3R5bGU9ImZpbGw6I2I4ZDQzMztmaWxsLW9wYWNpdHk6MC44IiBkPSJtIDM5LjI3LDUyLjQyIGggLTEuMTQgdiAtOC4yNCBoIC04LjM3IHYgLTEuMjIgaCA5LjUxIHoiLz4mI3hhOyYjeGE7PHBhdGggaWQ9InBhdGg5NTYyMyIgaW5rc2NhcGU6Y29ubmVjdG9yLWN1cnZhdHVyZT0iMCIgc3R5bGU9ImZpbGw6I2I4ZDQzMztmaWxsLW9wYWNpdHk6MC41IiBkPSJtIDI5Ljc2LDQyLjk2IGggMS4xNCB2IDguMjQgaCA4LjM3IHYgMS4yMiBoIC05LjUxIHoiLz4mI3hhOyYjeGE7PHBhdGggaWQ9InBhdGg5NTYzMSIgaW5rc2NhcGU6Y29ubmVjdG9yLWN1cnZhdHVyZT0iMCIgc3R5bGU9ImZpbGw6I2I4ZDQzMztmaWxsLW9wYWNpdHk6MC44IiBkPSJNIDI1Ljc2LDY1LjI1IEggMjQuNyB2IC04LjI3IGggLTguNCB2IC0xLjE5IGggOS40NiB6Ii8+JiN4YTsmI3hhOzxwYXRoIGlkPSJwYXRoOTU2MzkiIGlua3NjYXBlOmNvbm5lY3Rvci1jdXJ2YXR1cmU9IjAiIHN0eWxlPSJmaWxsOiNiOGQ0MzM7ZmlsbC1vcGFjaXR5OjAuNSIgZD0ibSAxNi4zLDU1Ljc5IGggMS4wOSB2IDguMjQgaCA4LjM3IHYgMS4yMiBIIDE2LjMgWiIvPiYjeGE7JiN4YTs8cGF0aCBpZD0icGF0aDk1NjQ3IiBpbmtzY2FwZTpjb25uZWN0b3ItY3VydmF0dXJlPSIwIiBzdHlsZT0iZmlsbDojYjhkNDMzO2ZpbGwtb3BhY2l0eTowLjgiIGQ9Im0gMzkuMjcsNjUuMjUgaCAtMS4xNCB2IC04LjI3IGggLTguMzcgdiAtMS4xOSBoIDkuNTEgeiIvPiYjeGE7JiN4YTs8cGF0aCBpZD0icGF0aDk1NjU1IiBpbmtzY2FwZTpjb25uZWN0b3ItY3VydmF0dXJlPSIwIiBzdHlsZT0iZmlsbDojYjhkNDMzO2ZpbGwtb3BhY2l0eTowLjUiIGQ9Im0gMjkuNzYsNTUuNzkgaCAxLjE0IHYgOC4yNCBoIDguMzcgdiAxLjIyIGggLTkuNTEgeiIvPiYjeGE7JiN4YTs8cGF0aCBpZD0icGF0aDk1NjYzIiBpbmtzY2FwZTpjb25uZWN0b3ItY3VydmF0dXJlPSIwIiBzdHlsZT0iZmlsbDojYjhkNDMzO2ZpbGwtb3BhY2l0eTowLjgiIGQ9Im0gNTIuNTUsNjUuMjUgaCAtMS4wOSB2IC04LjI3IGggLTguMzcgdiAtMS4xOSBoIDkuNDYgeiIvPiYjeGE7JiN4YTs8cGF0aCBpZD0icGF0aDk1NjcxIiBpbmtzY2FwZTpjb25uZWN0b3ItY3VydmF0dXJlPSIwIiBzdHlsZT0iZmlsbDojYjhkNDMzO2ZpbGwtb3BhY2l0eTowLjUiIGQ9Im0gNDMuMDksNTUuNzkgaCAxLjA5IHYgOC4yNCBoIDguMzcgdiAxLjIyIGggLTkuNDYgeiIvPiYjeGE7JiN4YTs8cGF0aCBpZD0icGF0aDk1Njc5IiBpbmtzY2FwZTpjb25uZWN0b3ItY3VydmF0dXJlPSIwIiBzdHlsZT0iZmlsbDojYjhkNDMzO2ZpbGwtb3BhY2l0eTowLjgiIGQ9Im0gMjUuMiwzOS42IGggLTEuNCB2IC0xLjA4IGwgOC4xOSwtOC4zOCBoIDEuMjcgdiAwLjk1IHoiLz4mI3hhOyYjeGE7PHBhdGggaWQ9InBhdGg5NTY4NyIgaW5rc2NhcGU6Y29ubmVjdG9yLWN1cnZhdHVyZT0iMCIgc3R5bGU9ImZpbGw6I2I4ZDQzMztmaWxsLW9wYWNpdHk6MC44IiBkPSJtIDMxLjE2LDUyLjQyIGggLTEuNCB2IC0xLjA4IGwgOC4yNywtOC4zOCBoIDEuMjQgdiAwLjk1IHoiLz4mI3hhOyYjeGE7PHBhdGggaWQ9InBhdGg5NTY5NSIgaW5rc2NhcGU6Y29ubmVjdG9yLWN1cnZhdHVyZT0iMCIgc3R5bGU9ImZpbGw6I2I4ZDQzMztmaWxsLW9wYWNpdHk6MC44IiBkPSJtIDE3LjcsNTIuNDIgaCAtMS40IHYgLTEuMDggbCA4LjE5LC04LjM4IGggMS4yNyB2IDAuOTUgeiIvPiYjeGE7JiN4YTs8cGF0aCBpZD0icGF0aDk1NzAzIiBpbmtzY2FwZTpjb25uZWN0b3ItY3VydmF0dXJlPSIwIiBzdHlsZT0iZmlsbDojYjhkNDMzO2ZpbGwtb3BhY2l0eTowLjgiIGQ9Im0gMTcuNyw2NS4yNSBoIC0xLjQgdiAtMS4wOCBsIDguMTksLTguMzggaCAxLjI3IHYgMC45NSB6Ii8+JiN4YTsmI3hhOzxwYXRoIGlkPSJwYXRoOTU3MTEiIGlua3NjYXBlOmNvbm5lY3Rvci1jdXJ2YXR1cmU9IjAiIHN0eWxlPSJmaWxsOiNiOGQ0MzM7ZmlsbC1vcGFjaXR5OjAuOCIgZD0ibSAzMS4xNiw2NS4yNSBoIC0xLjQgdiAtMS4wOCBsIDguMjcsLTguMzggaCAxLjI0IHYgMC45NSB6Ii8+JiN4YTsmI3hhOzxwYXRoIGlkPSJwYXRoOTU3MTkiIGlua3NjYXBlOmNvbm5lY3Rvci1jdXJ2YXR1cmU9IjAiIHN0eWxlPSJmaWxsOiNiOGQ0MzM7ZmlsbC1vcGFjaXR5OjAuOCIgZD0ibSA0NC40OSw2NS4yNSBoIC0xLjQgdiAtMS4wOCBsIDguMTksLTguMzggaCAxLjI3IHYgMC45NSB6Ii8+JiN4YTsmI3hhOzxwYXRoIGlkPSJwYXRoOTU3MjkiIGlua3NjYXBlOmNvbm5lY3Rvci1jdXJ2YXR1cmU9IjAiIHN0eWxlPSJmaWxsOiMzOTk5YzYiIGQ9Im0gNTYuMDUsNDcuMTUgdiA0MS4xOCBjIDAsNC4yNCA5LjU5LDcuNzQgMjEuMzksNy43NCBWIDQ3LjE1IFoiLz4mI3hhOyYjeGE7PHBhdGggaWQ9InBhdGg5NTczNyIgaW5rc2NhcGU6Y29ubmVjdG9yLWN1cnZhdHVyZT0iMCIgc3R5bGU9ImZpbGw6IzVhYjRkOSIgZD0ibSA3Ny4xMiw5Ni4xIGggMC4zMiBjIDExLjgyLDAgMjEuMzksLTMuNSAyMS4zOSwtNy43NCBWIDQ3LjE1IEggNzcuMTIgWiIvPiYjeGE7JiN4YTs8cGF0aCBpZD0icGF0aDk1NzQ1IiBpbmtzY2FwZTpjb25uZWN0b3ItY3VydmF0dXJlPSIwIiBzdHlsZT0iZmlsbDojZmZmZmZmIiBkPSJtIDk4LjgzLDQ3LjE1IGMgMCw0LjI0IC05LjYsNy43NCAtMjEuMzksNy43NCAtMTEuOCwwIC0yMS4zOSwtMy40NyAtMjEuMzksLTcuNzQgMCwtNC4yNiA5LjU5LC03Ljc0IDIxLjM5LC03Ljc0IDExLjc5LDAgMjEuMzksMy40MiAyMS4zOSw3Ljc0IHoiLz4mI3hhOyYjeGE7PHBhdGggaWQ9InBhdGg5NTc1MyIgaW5rc2NhcGU6Y29ubmVjdG9yLWN1cnZhdHVyZT0iMCIgc3R5bGU9ImZpbGw6IzdmYmI0MiIgZD0ibSA5NC40Niw0Ni43IGMgMCwyLjc4IC03LjYxLDUuMTQgLTE3LjAyLDUuMTQgLTkuNCwwIC0xNy4wMSwtMi4yOCAtMTcuMDEsLTUuMTQgMCwtMi43OCA3LjYxLC01LjE0IDE3LjAxLC01LjE0IDkuNDEsMCAxNy4wMiwyLjMgMTcuMDIsNS4xNCB6Ii8+JiN4YTsmI3hhOzxwYXRoIGlkPSJwYXRoOTU3NjEiIGlua3NjYXBlOmNvbm5lY3Rvci1jdXJ2YXR1cmU9IjAiIHN0eWxlPSJmaWxsOiNiOGQ0MzMiIGQ9Im0gOTAuOTEsNDkuODMgYyAyLjIyLC0wLjkgMy41NSwtMS45NiAzLjU1LC0zLjEgMCwtMi43OCAtNy42MSwtNS4xNCAtMTcuMDIsLTUuMTQgLTkuNCwwIC0xNy4wMSwyLjI4IC0xNy4wMSw1LjE0IDAsMS4yMiAxLjMzLDIuMjggMy41NSwzLjEgMy4xLC0xLjIyIDguMDEsLTEuOTYgMTMuNDYsLTEuOTYgNS40NiwtMC4wOCAxMC4zNCwwLjc0IDEzLjQ3LDEuOTYgeiIvPiYjeGE7PHBhdGggZD0ibSA2MS4zODEyMyw3Ni42ODA3MiB2IC0yLjkyIGMgMC41LDAuNDUgMS4wOSwwLjc3IDEuNzIsMS4wMSAwLjY0LDAuMTggMS4yNywwLjMyIDEuODMsMC4zMiAwLjM3LDAgMC42OSwtMC4wNiAwLjk1LC0wLjE0IDAuMjcsLTAuMDUgMC41MSwtMC4xMyAwLjY5LC0wLjI2IDAuMTksLTAuMTMgMC4zMiwtMC4yNyAwLjM3LC0wLjQ1IDAuMDYsLTAuMTkgMC4xNCwtMC4zMiAwLjE0LC0wLjUxIDAsLTAuMjYgLTAuMDYsLTAuNSAtMC4xOSwtMC42OSAtMC4xMywtMC4xOCAtMC4zMiwtMC4zNyAtMC41OCwtMC41OCAtMC4yNywtMC4xOCAtMC41OCwtMC4zMiAtMC45LC0wLjUgLTAuMzIsLTAuMTMgLTAuNjksLTAuMzIgLTEuMTQsLTAuNTEgLTEuMDEsLTAuNDUgLTEuNzgsLTAuOTUgLTIuMjgsLTEuNTEgLTAuNSwtMC42MyAtMC43NywtMS4zMiAtMC43NywtMi4yMiAwLC0wLjY5IDAuMTMsLTEuMjcgMC4zNywtMS43MiAwLjI3LC0wLjUxIDAuNjQsLTAuOTEgMS4wOSwtMS4yMiAwLjQ1LC0wLjMyIDEsLTAuNTkgMS42NCwtMC42OSAwLjY0LC0wLjE0IDEuMjcsLTAuMTkgMS45NiwtMC4xOSAwLjY5LDAgMS4yNywwLjA1IDEuNzgsMC4xMyAwLjUsMC4wNiAxLDAuMTkgMS40NiwwLjM3IHYgMi43MyBjIC0wLjE5LC0wLjEzIC0wLjQ2LC0wLjI2IC0wLjY5LC0wLjM3IC0wLjI0LC0wLjEgLTAuNTEsLTAuMTggLTAuNzcsLTAuMjYgLTAuMjcsLTAuMDUgLTAuNTksLTAuMTMgLTAuODIsLTAuMTkgLTAuMjcsLTAuMDUgLTAuNTEsLTAuMDUgLTAuNzcsLTAuMDUgLTAuMzIsMCAtMC42NCwwIC0wLjksMC4wNSAtMC4yNywwLjA2IC0wLjUxLDAuMTQgLTAuNjksMC4yNyAtMC4xOSwwLjEzIC0wLjMyLDAuMjYgLTAuNDUsMC4zNyAtMC4xNCwwLjE4IC0wLjE0LDAuMzIgLTAuMTQsMC41IDAsMC4xOSAwLjA2LDAuMzcgMC4xOSwwLjU5IDAuMTMsMC4xOCAwLjI2LDAuMzEgMC41LDAuNSAwLjE5LDAuMTMgMC40NSwwLjMyIDAuNzcsMC40NSAwLjMyLDAuMTMgMC42NCwwLjMyIDEuMDEsMC40NSAwLjUsMC4xOSAxLjAxLDAuNDUgMS40LDAuNjkgMC40NSwwLjI2IDAuNzcsMC41IDEuMDksMC44MiAwLjMyLDAuMzIgMC41LDAuNjQgMC42OSwxLjA5IDAuMTMsMC4zNyAwLjI2LDAuODIgMC4yNiwxLjQgMCwwLjY5IC0wLjEzLDEuMzMgLTAuMzcsMS44MyAtMC4yNiwwLjUgLTAuNjMsMC45IC0xLjE0LDEuMjIgLTAuNDUsMC4zMiAtMSwwLjUgLTEuNjQsMC42NCAtMC42NCwwLjEzIC0xLjI3LDAuMTggLTEuOTYsMC4xOCAtMC42OSwwIC0xLjQxLC0wLjA1IC0yLjA0LC0wLjE4IC0wLjY2LDAgLTEuMjIsLTAuMjIgLTEuNjcsLTAuNDUgeiIgc3R5bGU9ImZpbGw6I2ZmZmZmZiIgaW5rc2NhcGU6Y29ubmVjdG9yLWN1cnZhdHVyZT0iMCIgaWQ9InBhdGg5NTc3MSIvPiYjeGE7PHBhdGggZD0ibSA3Ny44MDc4Myw3Ny40NDM0IGMgLTEuODIsMCAtMy4zNiwtMC42MyAtNC41NSwtMS44MyAtMS4xNCwtMS4yMiAtMS43OCwtMi43OCAtMS43OCwtNC43NyAwLC0yLjA0IDAuNTgsLTMuNjggMS43OCwtNC45NSAxLjIxLC0xLjI4IDIuNzMsLTEuOTEgNC42OSwtMS45MSAxLjgzLDAgMy4zNiwwLjYzIDQuNSwxLjgzIDEuMTQsMS4xOSAxLjcyLDIuNzggMS43Miw0LjgyIDAsMi4wNCAtMC41OCwzLjY4IC0xLjc3LDQuOTYgLTAuMDUsMC4wNSAtMC4wNSwwLjA1IC0wLjEzLDAuMTMgLTAuMDYsMC4wNSAtMC4wNiwwLjA1IC0wLjE0LDAuMTMgbCAzLjMyLDMuMTggaCAtNC4xNCBsIC0xLjcyLC0xLjc3IGMgLTAuNDIsMC4xIC0xLjA2LDAuMTggLTEuNzgsMC4xOCB6IG0gMC4xNCwtMTAuOTIgYyAtMS4wMSwwIC0xLjgzLDAuMzcgLTIuNDcsMS4xNCAtMC42MywwLjc3IC0wLjksMS43OCAtMC45LDMuMDUgMCwxLjI3IDAuMzIsMi4yOCAwLjksMy4wNSAwLjY0LDAuNzcgMS40MSwxLjE0IDIuMzYsMS4xNCAxLjAxLDAgMS43OCwtMC4zNyAyLjQxLC0xLjA5IDAuNTksLTAuNzcgMC45LC0xLjc4IDAuOSwtMy4wNSAwLC0xLjMyIC0wLjMxLC0yLjQxIC0wLjksLTMuMTggLTAuNTMsLTAuNjkgLTEuMywtMS4wNiAtMi4zLC0xLjA2IHoiIHN0eWxlPSJmaWxsOiNmZmZmZmYiIGlua3NjYXBlOmNvbm5lY3Rvci1jdXJ2YXR1cmU9IjAiIGlkPSJwYXRoOTU3NzkiLz4mI3hhOzxwYXRoIGQ9Im0gOTQuMTM4ODMsNzcuMTc4MjEgaCAtNy43NCB2IC0xMy4wMSBoIDIuOTIgdiAxMC42IGggNC44MiB6IiBzdHlsZT0iZmlsbDojZmZmZmZmIiBpbmtzY2FwZTpjb25uZWN0b3ItY3VydmF0dXJlPSIwIiBpZD0icGF0aDk1Nzg3Ii8+JiN4YTs8L3N2Zz4=;fontStyle=1;fillColor=#99FFFF;" vertex="1" parent="1">
          <mxGeometry x="650" y="171" width="81.47" height="79" as="geometry" />
        </mxCell>
        <mxCell id="Vcdu8m01-dEKTfZSmj1O-19" value="" style="shape=image;verticalLabelPosition=bottom;verticalAlign=top;imageAspect=0;aspect=fixed;image=data:image/svg+xml,PHN2ZyB4bWxucz0iaHR0cDovL3d3dy53My5vcmcvMjAwMC9zdmciIGlkPSJJY29ucyIgdmlld0JveD0iMCAwIDY0IDY0Ij48ZGVmcz48c3R5bGU+LmNscy0ye2ZpbGw6I2ZmZn08L3N0eWxlPjwvZGVmcz48cGF0aCBkPSJNMCAzMWMwLS4wOS4wNS0uMTguMDYtLjI3LjA1LS45Mi4wNi0xLjg0LjE2LTIuNzVhMTUuNzYgMTUuNzYgMCAwMTIuODUtOC4yOCA4LjMgOC4zIDAgMDE1LjY5LTMuMzIgNy43OCA3Ljc4IDAgMDExLS4wNkgzMWMuNDIgMCAuNDIgMCAuNDItLjQydi0xLjQ3YzAtLjMtLjA5LS4zNy0uMzgtLjM3SDE2LjU2Yy0uMjUgMC0xLjU2LS4wNy0xLjU2LS4zM1Y2LjUxYzAtMS4wOCAxLjc0LTIgMi40NC0yLjc3QTguNzcgOC43NyAwIDAxMjEgMS40NSAyMS44NyAyMS44NyAwIDAxMjYuMTIuMjhhNDMuMDkgNDMuMDkgMCAwMTcuMi0uMjIgMjMuNDYgMjMuNDYgMCAwMTcuNTggMS40MSA5LjMyIDkuMzIgMCAwMTQuMjUgMyA2IDYgMCAwMTEuMjQgNGMtLjA2IDEuMjIgMCAyLjQ2IDAgMy42OHY2LjgyYzAgMS4zNCAwIDIuNjgtLjA2IDRhNy4xMiA3LjEyIDAgMDEtNC42MiA2LjYyIDEwLjU1IDEwLjU1IDAgMDEtNC4xMi43OWgtMTVBOC41OCA4LjU4IDAgMDAxOCAzMS41OWE3LjkyIDcuOTIgMCAwMC0zLjQ3IDQuODUgMTEuMzcgMTEuMzcgMCAwMC0uNDIgMy4xMnY2LjgyYzAgLjQ1IDAgLjQ1LS40Ni40NS0xLjYzIDAtMy4yNy4wNS00LjkgMEE2Ljg0IDYuODQgMCAwMTQuNCA0NWExMC44NyAxMC44NyAwIDAxLTMtNC42NyAxOS44OSAxOS44OSAwIDAxLTEuMTMtNS4wMmMtLjEtMS4xLS4xNC0yLjItLjIxLTMuMyAwLS4xMi0uMDYtLjI0LS4wNi0uMzZ6IiBmaWxsPSIjMzc3MmE0Ii8+PHBhdGggY2xhc3M9ImNscy0yIiBkPSJNMjAgN2EzIDMgMCAwMTYgMCAzIDMgMCAxMS02IDB6Ii8+PHBhdGggZD0iTTYzIDMyYTEuNjEgMS42MSAwIDAwLS4wNi4yN2MtLjA1LjkyLS4wNiAxLjg0LS4xNiAyLjc1YTE1Ljc2IDE1Ljc2IDAgMDEtMi44NSA4LjI1IDguMyA4LjMgMCAwMS01LjY5IDMuMzIgNy43OCA3Ljc4IDAgMDEtMSAuMDZIMzJjLS40MiAwLS40MiAwLS40Mi40MnYxLjQ3YzAgLjMuMDkuMzcuMzguMzdoMTQuNDhjLjI1IDAgLjMzLjA3LjMzLjMzdjcuMjJhNC4yMSA0LjIxIDAgMDEtMS4yMiAyLjc3QTguNzcgOC43NyAwIDAxNDIgNjEuNTVhMjEuODcgMjEuODcgMCAwMS01LjExIDEuMTcgNDMuMDkgNDMuMDkgMCAwMS03LjIuMjIgMjMuNDYgMjMuNDYgMCAwMS03LjU4LTEuNDEgOS4zMiA5LjMyIDAgMDEtNC4yNS0zIDYgNiAwIDAxLTEuMjQtNGMuMDYtMS4yMiAwLTIuNDYgMC0zLjY4di02LjgyYzAtMS4zNCAwLTIuNjguMDYtNGE3LjEyIDcuMTIgMCAwMTQuNjItNi42MiAxMC41NSAxMC41NSAwIDAxNC4xMi0uNzloMTVBOC41OCA4LjU4IDAgMDA0NSAzMS40MWE3LjkyIDcuOTIgMCAwMDMuNDctNC44NSAxMS4zNyAxMS4zNyAwIDAwLjQyLTMuMTJ2LTYuODJjMC0uNDUgMC0uNDUuNDYtLjQ1IDEuNjMgMCAzLjI3LS4wNSA0LjkgMEE2Ljg0IDYuODQgMCAwMTU4LjYgMThhMTAuODcgMTAuODcgMCAwMTMgNC42NyAxOS44OSAxOS44OSAwIDAxMS4xMSA1LjA3Yy4xIDEuMS4xNCAyLjIuMjEgMy4zYTMuMjUgMy4yNSAwIDAwLjA2LjM2cS4wMi4yOS4wMi42eiIgZmlsbD0iI2ZmZGE0YiIvPjxwYXRoIGNsYXNzPSJjbHMtMiIgZD0iTTQzLjUxIDU0LjkyYTMgMyAwIDAxLTYgMCAzIDMgMCAxMTYgMHoiLz48L3N2Zz4=" vertex="1" parent="1">
          <mxGeometry x="691.5" y="71" width="31.5" height="31.5" as="geometry" />
        </mxCell>
        <mxCell id="Vcdu8m01-dEKTfZSmj1O-26" value="Python" style="shape=image;verticalLabelPosition=bottom;verticalAlign=top;imageAspect=0;aspect=fixed;image=data:image/svg+xml,PHN2ZyB4bWxucz0iaHR0cDovL3d3dy53My5vcmcvMjAwMC9zdmciIGlkPSJJY29ucyIgdmlld0JveD0iMCAwIDY0IDY0Ij48ZGVmcz48c3R5bGU+LmNscy0ye2ZpbGw6I2ZmZn08L3N0eWxlPjwvZGVmcz48cGF0aCBkPSJNMCAzMWMwLS4wOS4wNS0uMTguMDYtLjI3LjA1LS45Mi4wNi0xLjg0LjE2LTIuNzVhMTUuNzYgMTUuNzYgMCAwMTIuODUtOC4yOCA4LjMgOC4zIDAgMDE1LjY5LTMuMzIgNy43OCA3Ljc4IDAgMDExLS4wNkgzMWMuNDIgMCAuNDIgMCAuNDItLjQydi0xLjQ3YzAtLjMtLjA5LS4zNy0uMzgtLjM3SDE2LjU2Yy0uMjUgMC0xLjU2LS4wNy0xLjU2LS4zM1Y2LjUxYzAtMS4wOCAxLjc0LTIgMi40NC0yLjc3QTguNzcgOC43NyAwIDAxMjEgMS40NSAyMS44NyAyMS44NyAwIDAxMjYuMTIuMjhhNDMuMDkgNDMuMDkgMCAwMTcuMi0uMjIgMjMuNDYgMjMuNDYgMCAwMTcuNTggMS40MSA5LjMyIDkuMzIgMCAwMTQuMjUgMyA2IDYgMCAwMTEuMjQgNGMtLjA2IDEuMjIgMCAyLjQ2IDAgMy42OHY2LjgyYzAgMS4zNCAwIDIuNjgtLjA2IDRhNy4xMiA3LjEyIDAgMDEtNC42MiA2LjYyIDEwLjU1IDEwLjU1IDAgMDEtNC4xMi43OWgtMTVBOC41OCA4LjU4IDAgMDAxOCAzMS41OWE3LjkyIDcuOTIgMCAwMC0zLjQ3IDQuODUgMTEuMzcgMTEuMzcgMCAwMC0uNDIgMy4xMnY2LjgyYzAgLjQ1IDAgLjQ1LS40Ni40NS0xLjYzIDAtMy4yNy4wNS00LjkgMEE2Ljg0IDYuODQgMCAwMTQuNCA0NWExMC44NyAxMC44NyAwIDAxLTMtNC42NyAxOS44OSAxOS44OSAwIDAxLTEuMTMtNS4wMmMtLjEtMS4xLS4xNC0yLjItLjIxLTMuMyAwLS4xMi0uMDYtLjI0LS4wNi0uMzZ6IiBmaWxsPSIjMzc3MmE0Ii8+PHBhdGggY2xhc3M9ImNscy0yIiBkPSJNMjAgN2EzIDMgMCAwMTYgMCAzIDMgMCAxMS02IDB6Ii8+PHBhdGggZD0iTTYzIDMyYTEuNjEgMS42MSAwIDAwLS4wNi4yN2MtLjA1LjkyLS4wNiAxLjg0LS4xNiAyLjc1YTE1Ljc2IDE1Ljc2IDAgMDEtMi44NSA4LjI1IDguMyA4LjMgMCAwMS01LjY5IDMuMzIgNy43OCA3Ljc4IDAgMDEtMSAuMDZIMzJjLS40MiAwLS40MiAwLS40Mi40MnYxLjQ3YzAgLjMuMDkuMzcuMzguMzdoMTQuNDhjLjI1IDAgLjMzLjA3LjMzLjMzdjcuMjJhNC4yMSA0LjIxIDAgMDEtMS4yMiAyLjc3QTguNzcgOC43NyAwIDAxNDIgNjEuNTVhMjEuODcgMjEuODcgMCAwMS01LjExIDEuMTcgNDMuMDkgNDMuMDkgMCAwMS03LjIuMjIgMjMuNDYgMjMuNDYgMCAwMS03LjU4LTEuNDEgOS4zMiA5LjMyIDAgMDEtNC4yNS0zIDYgNiAwIDAxLTEuMjQtNGMuMDYtMS4yMiAwLTIuNDYgMC0zLjY4di02LjgyYzAtMS4zNCAwLTIuNjguMDYtNGE3LjEyIDcuMTIgMCAwMTQuNjItNi42MiAxMC41NSAxMC41NSAwIDAxNC4xMi0uNzloMTVBOC41OCA4LjU4IDAgMDA0NSAzMS40MWE3LjkyIDcuOTIgMCAwMDMuNDctNC44NSAxMS4zNyAxMS4zNyAwIDAwLjQyLTMuMTJ2LTYuODJjMC0uNDUgMC0uNDUuNDYtLjQ1IDEuNjMgMCAzLjI3LS4wNSA0LjkgMEE2Ljg0IDYuODQgMCAwMTU4LjYgMThhMTAuODcgMTAuODcgMCAwMTMgNC42NyAxOS44OSAxOS44OSAwIDAxMS4xMSA1LjA3Yy4xIDEuMS4xNCAyLjIuMjEgMy4zYTMuMjUgMy4yNSAwIDAwLjA2LjM2cS4wMi4yOS4wMi42eiIgZmlsbD0iI2ZmZGE0YiIvPjxwYXRoIGNsYXNzPSJjbHMtMiIgZD0iTTQzLjUxIDU0LjkyYTMgMyAwIDAxLTYgMCAzIDMgMCAxMTYgMHoiLz48L3N2Zz4=" vertex="1" parent="1">
          <mxGeometry x="450" y="185" width="20" height="20" as="geometry" />
        </mxCell>
        <mxCell id="Vcdu8m01-dEKTfZSmj1O-48" value="Data&amp;nbsp; to FR ODS" style="edgeStyle=orthogonalEdgeStyle;rounded=0;orthogonalLoop=1;jettySize=auto;html=1;entryX=0;entryY=0.5;entryDx=0;entryDy=0;" edge="1" parent="1" source="Vcdu8m01-dEKTfZSmj1O-28" target="Vcdu8m01-dEKTfZSmj1O-47">
          <mxGeometry relative="1" as="geometry">
            <Array as="points">
              <mxPoint x="570" y="385" />
              <mxPoint x="570" y="385" />
            </Array>
          </mxGeometry>
        </mxCell>
        <mxCell id="Vcdu8m01-dEKTfZSmj1O-28" value="VM2 SQL Server" style="verticalLabelPosition=bottom;html=1;verticalAlign=top;align=center;strokeColor=none;fillColor=#00BEF2;shape=mxgraph.azure.virtual_machine;" vertex="1" parent="1">
          <mxGeometry x="340" y="330" width="140" height="110" as="geometry" />
        </mxCell>
        <mxCell id="Vcdu8m01-dEKTfZSmj1O-30" value="SQL DB" style="aspect=fixed;html=1;points=[];align=center;image;fontSize=12;image=img/lib/azure2/databases/SQL_Server.svg;" vertex="1" parent="1">
          <mxGeometry x="347" y="367.5" width="35" height="35" as="geometry" />
        </mxCell>
        <mxCell id="Vcdu8m01-dEKTfZSmj1O-46" style="edgeStyle=orthogonalEdgeStyle;rounded=0;orthogonalLoop=1;jettySize=auto;html=1;entryX=0;entryY=0.5;entryDx=0;entryDy=0;entryPerimeter=0;" edge="1" parent="1" source="Vcdu8m01-dEKTfZSmj1O-31" target="Vcdu8m01-dEKTfZSmj1O-28">
          <mxGeometry relative="1" as="geometry" />
        </mxCell>
        <mxCell id="Vcdu8m01-dEKTfZSmj1O-31" value="" style="shape=image;html=1;verticalAlign=top;verticalLabelPosition=bottom;labelBackgroundColor=#ffffff;imageAspect=0;aspect=fixed;image=https://cdn2.iconfinder.com/data/icons/gnomeicontheme/16x16/stock/data/stock_data-tables.png" vertex="1" parent="1">
          <mxGeometry x="220" y="377" width="16" height="16" as="geometry" />
        </mxCell>
        <mxCell id="Vcdu8m01-dEKTfZSmj1O-32" value="" style="shape=image;html=1;verticalAlign=top;verticalLabelPosition=bottom;labelBackgroundColor=#ffffff;imageAspect=0;aspect=fixed;image=https://cdn2.iconfinder.com/data/icons/gnomeicontheme/16x16/stock/data/stock_data-tables.png" vertex="1" parent="1">
          <mxGeometry x="170" y="377" width="16" height="16" as="geometry" />
        </mxCell>
        <mxCell id="Vcdu8m01-dEKTfZSmj1O-33" value="" style="shape=image;html=1;verticalAlign=top;verticalLabelPosition=bottom;labelBackgroundColor=#ffffff;imageAspect=0;aspect=fixed;image=https://cdn2.iconfinder.com/data/icons/gnomeicontheme/16x16/stock/data/stock_data-tables.png" vertex="1" parent="1">
          <mxGeometry x="194" y="377" width="16" height="16" as="geometry" />
        </mxCell>
        <mxCell id="Vcdu8m01-dEKTfZSmj1O-34" value="" style="shape=image;html=1;verticalAlign=top;verticalLabelPosition=bottom;labelBackgroundColor=#ffffff;imageAspect=0;aspect=fixed;image=https://cdn2.iconfinder.com/data/icons/gnomeicontheme/16x16/stock/data/stock_data-tables.png;direction=west;" vertex="1" parent="1">
          <mxGeometry x="170" y="402.5" width="16" height="16" as="geometry" />
        </mxCell>
        <mxCell id="Vcdu8m01-dEKTfZSmj1O-39" value="" style="shape=image;html=1;verticalAlign=top;verticalLabelPosition=bottom;labelBackgroundColor=#ffffff;imageAspect=0;aspect=fixed;image=https://cdn2.iconfinder.com/data/icons/gnomeicontheme/16x16/stock/data/stock_data-tables.png" vertex="1" parent="1">
          <mxGeometry x="194" y="402.5" width="16" height="16" as="geometry" />
        </mxCell>
        <mxCell id="Vcdu8m01-dEKTfZSmj1O-40" value="" style="shape=image;html=1;verticalAlign=top;verticalLabelPosition=bottom;labelBackgroundColor=#ffffff;imageAspect=0;aspect=fixed;image=https://cdn2.iconfinder.com/data/icons/gnomeicontheme/16x16/stock/data/stock_data-tables.png" vertex="1" parent="1">
          <mxGeometry x="220" y="402.5" width="16" height="16" as="geometry" />
        </mxCell>
        <mxCell id="Vcdu8m01-dEKTfZSmj1O-43" value="" style="aspect=fixed;html=1;points=[];align=center;image;fontSize=12;image=img/lib/azure2/databases/SSIS_Lift_And_Shift_IR.svg;" vertex="1" parent="1">
          <mxGeometry x="191" y="398.43" width="22" height="24.13" as="geometry" />
        </mxCell>
        <mxCell id="Vcdu8m01-dEKTfZSmj1O-42" value="Staging Tables and SSIS Packages" style="text;html=1;strokeColor=none;fillColor=none;align=center;verticalAlign=middle;whiteSpace=wrap;rounded=0;" vertex="1" parent="1">
          <mxGeometry x="260" y="372.5" width="60" height="30" as="geometry" />
        </mxCell>
        <mxCell id="Vcdu8m01-dEKTfZSmj1O-47" value="" style="shape=image;html=1;verticalAlign=top;verticalLabelPosition=bottom;labelBackgroundColor=#ffffff;imageAspect=0;aspect=fixed;image=https://cdn1.iconfinder.com/data/icons/hawcons/32/698332-icon-110-document-file-ods-128.png" vertex="1" parent="1">
          <mxGeometry x="663.5" y="320" width="129" height="129" as="geometry" />
        </mxCell>
        <mxCell id="Vcdu8m01-dEKTfZSmj1O-49" value="Weekly Dimension &lt;br&gt;Table refresh" style="text;html=1;align=center;verticalAlign=middle;resizable=0;points=[];autosize=1;strokeColor=none;fillColor=none;" vertex="1" parent="1">
          <mxGeometry x="520" y="265" width="110" height="30" as="geometry" />
        </mxCell>
        <mxCell id="Vcdu8m01-dEKTfZSmj1O-56" value="" style="edgeStyle=orthogonalEdgeStyle;rounded=0;orthogonalLoop=1;jettySize=auto;html=1;endArrow=none;" edge="1" parent="1" source="Vcdu8m01-dEKTfZSmj1O-17" target="Vcdu8m01-dEKTfZSmj1O-49">
          <mxGeometry relative="1" as="geometry">
            <mxPoint x="699.5" y="267" as="sourcePoint" />
            <mxPoint x="478.5999999999999" y="331.1" as="targetPoint" />
            <Array as="points">
              <mxPoint x="700" y="280" />
            </Array>
          </mxGeometry>
        </mxCell>
      </root>
    </mxGraphModel>
  </diagram>
</mxfile>
